<svg xmlns="http://www.w3.org/2000/svg" width="785" height="758" fill="none"><path stroke="#1E1F24" stroke-linecap="round" stroke-linejoin="round" stroke-width="25" d="M34 575.5v84.75M34 745v-84.75m0 0 120-.25v-85 170M232 575h120v123.484c0 60.652-119.791 63.376-119.791 0M550 575H430v123.484c0 60.652 119.791 63.376 119.791 0M606 744l81.5-169L769 744"/><path stroke="#1E1F24" stroke-linecap="round" stroke-linejoin="round" stroke-width="50" d="M760 25H460v326.869c0 160.55 299.477 167.76 299.477 0M25 25h300v326.869c0 160.55-299.4774 167.76-299.4774 0M325 236h135"/><path stroke="#E3A008" stroke-linecap="round" stroke-linejoin="round" stroke-width="20" d="M238.5 107 109 364.5M246 175l-86 173.5M676.5 107 547 364.5M683 175l-86 173.5"/></svg>