<svg width="2382" height="200" viewBox="0 0 2382 200" fill="none" xmlns="http://www.w3.org/2000/svg">
<path d="M68.4 152.6C53.8667 152.6 41.4667 149.667 31.2 143.8C21.0667 137.8 13.3333 129.4 8 118.6C2.8 107.8 0.2 95.2 0.2 80.8C0.2 66.1333 2.86667 53.3333 8.2 42.4C13.6667 31.4667 21.4667 23 31.6 17C41.7333 10.8667 53.9333 7.8 68.2 7.8C79 7.8 88.6667 9.66666 97.2 13.4C105.733 17 112.6 22.4 117.8 29.6C123.133 36.6667 126.467 45.4 127.8 55.8H100.2C98.4667 49.2667 94.9333 44.1333 89.6 40.4C84.4 36.5333 77.4667 34.6 68.8 34.6C59.2 34.6 51.5333 36.8 45.8 41.2C40.2 45.4667 36.1333 51.0667 33.6 58C31.0667 64.8 29.8 72 29.8 79.6C29.8 87.4667 31.1333 94.9333 33.8 102C36.4667 109.067 40.6667 114.8 46.4 119.2C52.2667 123.6 59.9333 125.8 69.4 125.8C75 125.8 80 125 84.4 123.4C88.8 121.667 92.4 119.2 95.2 116C98.1333 112.8 100.133 109 101.2 104.6H129.8C128.6 114.867 125.133 123.6 119.4 130.8C113.667 138 106.4 143.467 97.6 147.2C88.8 150.8 79.0667 152.6 68.4 152.6ZM146.773 151V9.4H174.773V151H146.773ZM245.169 152.4C234.102 152.4 224.702 150.2 216.969 145.8C209.235 141.4 203.302 135.2 199.169 127.2C195.035 119.067 192.969 109.6 192.969 98.8C192.969 87.8667 195.102 78.3333 199.369 70.2C203.635 61.9333 209.635 55.4667 217.369 50.8C225.235 46.1333 234.502 43.8 245.169 43.8C253.169 43.8 260.169 45.1333 266.169 47.8C272.302 50.4667 277.435 54.2 281.569 59C285.835 63.8 288.969 69.4 290.969 75.8C293.102 82.0667 294.102 88.8667 293.969 96.2C293.969 98.0667 293.902 99.8667 293.769 101.6C293.635 103.333 293.369 105.067 292.969 106.8H220.769C221.169 110.8 222.302 114.467 224.169 117.8C226.035 121.133 228.635 123.8 231.969 125.8C235.435 127.667 239.702 128.6 244.769 128.6C248.102 128.6 251.169 128.267 253.969 127.6C256.769 126.8 259.169 125.6 261.169 124C263.169 122.4 264.569 120.533 265.369 118.4H292.969C291.235 126.267 287.969 132.733 283.169 137.8C278.502 142.867 272.835 146.6 266.169 149C259.502 151.267 252.502 152.4 245.169 152.4ZM221.369 87.2H267.169C267.035 83.6 266.102 80.2667 264.369 77.2C262.769 74 260.302 71.4667 256.969 69.6C253.769 67.6 249.635 66.6 244.569 66.6C239.502 66.6 235.235 67.6 231.769 69.6C228.435 71.6 225.902 74.2 224.169 77.4C222.569 80.4667 221.635 83.7333 221.369 87.2ZM345.408 152.4C340.608 152.4 335.941 151.8 331.408 150.6C327.008 149.267 323.074 147.267 319.608 144.6C316.141 141.933 313.408 138.6 311.408 134.6C309.408 130.6 308.408 125.933 308.408 120.6C308.408 113.4 309.874 107.667 312.808 103.4C315.741 99 319.674 95.6667 324.608 93.4C329.541 91.1333 335.208 89.6 341.608 88.8C348.141 88 354.874 87.6 361.808 87.6H377.008C377.008 83.7333 376.274 80.3333 374.808 77.4C373.474 74.3333 371.408 72 368.608 70.4C365.808 68.6667 362.208 67.8 357.808 67.8C355.008 67.8 352.274 68.2 349.608 69C347.074 69.6667 344.941 70.6667 343.208 72C341.474 73.3333 340.341 75.0667 339.808 77.2H311.408C312.208 71.3333 314.074 66.3333 317.008 62.2C319.941 57.9333 323.608 54.4667 328.008 51.8C332.408 49.1333 337.208 47.2 342.408 46C347.741 44.6667 353.208 44 358.808 44C374.141 44 385.474 48.4 392.808 57.2C400.141 65.8667 403.808 78.2 403.808 94.2V151H378.608L378.208 137.4C374.874 142.067 371.074 145.467 366.808 147.6C362.674 149.733 358.674 151.067 354.808 151.6C350.941 152.133 347.808 152.4 345.408 152.4ZM351.808 130.2C356.474 130.2 360.741 129.267 364.608 127.4C368.474 125.533 371.541 123 373.808 119.8C376.074 116.6 377.208 113 377.208 109V106.4H358.008C355.208 106.4 352.474 106.533 349.808 106.8C347.274 107.067 344.941 107.6 342.808 108.4C340.808 109.067 339.208 110.2 338.008 111.8C336.808 113.4 336.208 115.533 336.208 118.2C336.208 120.867 336.874 123.133 338.208 125C339.674 126.733 341.608 128.067 344.008 129C346.408 129.8 349.008 130.2 351.808 130.2ZM425.68 151V45.6H450.88L452.68 58.2C455.346 54.2 458.346 51.2 461.68 49.2C465.013 47.0667 468.48 45.6667 472.08 45C475.68 44.2 479.346 43.8 483.08 43.8C484.813 43.8 486.413 43.8667 487.88 44C489.346 44 490.413 44 491.08 44V71H484.48C478.213 71 472.746 72.0667 468.08 74.2C463.413 76.3333 459.813 79.6667 457.28 84.2C454.88 88.7333 453.68 94.5333 453.68 101.6V151H425.68ZM586.641 151L549.641 45.6H580.241L605.441 128.2L630.441 45.6H661.241L624.241 151H586.641ZM672.164 151V45.6H700.164V151H672.164ZM686.164 35C680.964 35 676.764 33.4667 673.564 30.4C670.364 27.2 668.764 23.1333 668.764 18.2C668.764 13 670.431 8.79999 673.764 5.59999C677.097 2.39999 681.297 0.799991 686.364 0.799991C691.031 0.799991 695.031 2.39999 698.364 5.59999C701.831 8.66666 703.564 12.8 703.564 18C703.564 23.0667 701.897 27.2 698.564 30.4C695.364 33.4667 691.231 35 686.164 35ZM763.559 152.4C758.626 152.4 753.559 151.867 748.359 150.8C743.159 149.733 738.359 147.933 733.959 145.4C729.559 142.733 725.826 139.2 722.759 134.8C719.693 130.267 717.693 124.667 716.759 118H745.159C745.959 120.4 747.359 122.467 749.359 124.2C751.493 125.933 753.893 127.2 756.559 128C759.359 128.8 762.159 129.2 764.959 129.2C766.826 129.2 768.693 129.067 770.559 128.8C772.426 128.533 774.159 128 775.759 127.2C777.359 126.4 778.626 125.4 779.559 124.2C780.493 122.867 780.959 121.2 780.959 119.2C780.959 117.067 780.293 115.4 778.959 114.2C777.626 113 775.759 112.067 773.359 111.4C770.959 110.6 768.226 109.867 765.159 109.2C759.693 108 753.826 106.667 747.559 105.2C741.293 103.733 735.893 101.6 731.359 98.8C729.493 97.4667 727.826 96 726.359 94.4C724.893 92.8 723.693 91 722.759 89C721.826 87 721.093 84.9333 720.559 82.8C720.026 80.5333 719.759 78.1333 719.759 75.6C719.759 69.8667 720.959 65 723.359 61C725.893 56.8667 729.226 53.5333 733.359 51C737.493 48.4667 742.093 46.6667 747.159 45.6C752.226 44.4 757.426 43.8 762.759 43.8C769.959 43.8 776.626 45 782.759 47.4C788.893 49.6667 793.959 53.2667 797.959 58.2C801.959 63 804.426 69.2667 805.359 77H778.559C778.026 74.0667 776.226 71.7333 773.159 70C770.093 68.1333 766.293 67.2 761.759 67.2C760.159 67.2 758.426 67.3333 756.559 67.6C754.826 67.8667 753.226 68.3333 751.759 69C750.293 69.6667 749.093 70.6 748.159 71.8C747.226 72.8667 746.759 74.3333 746.759 76.2C746.759 77.6667 747.159 79 747.959 80.2C748.893 81.4 750.159 82.4 751.759 83.2C753.493 84 755.559 84.7333 757.959 85.4C762.493 86.4667 767.026 87.4667 771.559 88.4C776.226 89.2 780.359 90.0667 783.959 91C788.359 91.9333 792.359 93.4667 795.959 95.6C799.693 97.7333 802.693 100.667 804.959 104.4C807.359 108 808.559 112.733 808.559 118.6C808.559 125.267 807.226 130.8 804.559 135.2C801.893 139.467 798.293 142.867 793.759 145.4C789.359 147.933 784.493 149.733 779.159 150.8C773.959 151.867 768.759 152.4 763.559 152.4ZM824.898 151V45.6H852.898V151H824.898ZM838.898 35C833.698 35 829.498 33.4667 826.298 30.4C823.098 27.2 821.498 23.1333 821.498 18.2C821.498 13 823.165 8.79999 826.498 5.59999C829.832 2.39999 834.032 0.799991 839.098 0.799991C843.765 0.799991 847.765 2.39999 851.098 5.59999C854.565 8.66666 856.298 12.8 856.298 18C856.298 23.0667 854.632 27.2 851.298 30.4C848.098 33.4667 843.965 35 838.898 35ZM924.294 152.4C913.627 152.4 904.294 150.267 896.294 146C888.294 141.6 882.094 135.4 877.694 127.4C873.294 119.267 871.094 109.667 871.094 98.6C871.094 87.2667 873.294 77.5333 877.694 69.4C882.227 61.1333 888.494 54.8 896.494 50.4C904.494 46 913.694 43.8 924.094 43.8C934.76 43.8 944.027 46.0667 951.894 50.6C959.76 55.1333 965.894 61.4667 970.294 69.6C974.694 77.7333 976.894 87.4667 976.894 98.8C976.894 109.867 974.694 119.467 970.294 127.6C966.027 135.6 959.96 141.733 952.094 146C944.36 150.267 935.094 152.4 924.294 152.4ZM923.894 126.8C930.027 126.8 934.96 125.467 938.694 122.8C942.427 120.133 945.094 116.667 946.694 112.4C948.427 108 949.294 103.4 949.294 98.6C949.294 93.8 948.427 89.2 946.694 84.8C945.094 80.4 942.427 76.8 938.694 74C935.094 71.0667 930.16 69.6 923.894 69.6C917.894 69.6 913.027 71.0667 909.294 74C905.56 76.8 902.827 80.4 901.094 84.8C899.494 89.2 898.694 93.8 898.694 98.6C898.694 103.533 899.494 108.133 901.094 112.4C902.827 116.667 905.56 120.133 909.294 122.8C913.027 125.467 917.894 126.8 923.894 126.8ZM994.82 151V45.6H1021.02L1022.42 57.8C1025.35 54.2 1028.69 51.4 1032.42 49.4C1036.29 47.2667 1040.15 45.8 1044.02 45C1048.02 44.2 1051.62 43.8 1054.82 43.8C1064.95 43.8 1072.82 46 1078.42 50.4C1084.15 54.8 1088.22 60.7333 1090.62 68.2C1093.15 75.5333 1094.42 83.7333 1094.42 92.8V151H1066.42V96.4C1066.42 93.2 1066.15 90 1065.62 86.8C1065.09 83.6 1064.09 80.6667 1062.62 78C1061.29 75.3333 1059.35 73.2 1056.82 71.6C1054.29 70 1050.95 69.2 1046.82 69.2C1041.49 69.2 1037.02 70.5333 1033.42 73.2C1029.82 75.8667 1027.15 79.4667 1025.42 84C1023.69 88.5333 1022.82 93.5333 1022.82 99V151H994.82ZM1123.91 181.6L1115.91 169.4C1117.91 168.333 1120.11 166.8 1122.51 164.8C1125.05 162.8 1127.31 160.6 1129.31 158.2C1131.31 155.933 1132.65 153.8 1133.31 151.8C1129.31 151.533 1125.78 150 1122.71 147.2C1119.65 144.4 1118.11 140.533 1118.11 135.6C1118.25 130.133 1120.05 126 1123.51 123.2C1127.11 120.267 1131.18 118.8 1135.71 118.8C1141.58 118.8 1146.11 120.933 1149.31 125.2C1152.51 129.333 1154.11 134.8 1154.11 141.6C1154.11 147.867 1152.65 153.733 1149.71 159.2C1146.78 164.667 1143.05 169.333 1138.51 173.2C1133.98 177.067 1129.11 179.867 1123.91 181.6ZM1271.32 152.4C1260.52 152.4 1251.25 150.2 1243.52 145.8C1235.92 141.4 1230.12 135.2 1226.12 127.2C1222.12 119.067 1220.12 109.533 1220.12 98.6C1220.12 87.5333 1222.18 77.9333 1226.32 69.8C1230.45 61.5333 1236.38 55.1333 1244.12 50.6C1251.98 46.0667 1261.45 43.8 1272.52 43.8C1281.05 43.8 1288.65 45.3333 1295.32 48.4C1301.98 51.4667 1307.32 55.8667 1311.32 61.6C1315.45 67.3333 1317.85 74.4 1318.52 82.8H1291.12C1289.92 78.1333 1287.58 74.7333 1284.12 72.6C1280.78 70.4667 1276.78 69.4 1272.12 69.4C1266.12 69.4 1261.32 70.8667 1257.72 73.8C1254.25 76.7333 1251.72 80.4667 1250.12 85C1248.65 89.5333 1247.92 94.0667 1247.92 98.6C1247.92 103.533 1248.72 108.2 1250.32 112.6C1251.92 116.867 1254.45 120.4 1257.92 123.2C1261.52 125.867 1266.18 127.2 1271.92 127.2C1276.72 127.2 1280.92 126.133 1284.52 124C1288.12 121.733 1290.45 118.267 1291.52 113.6H1319.52C1318.85 122.267 1316.25 129.467 1311.72 135.2C1307.18 140.933 1301.38 145.267 1294.32 148.2C1287.38 151 1279.72 152.4 1271.32 152.4ZM1336.42 151V9.4H1364.42V151H1336.42ZM1434.82 152.4C1423.75 152.4 1414.35 150.2 1406.62 145.8C1398.88 141.4 1392.95 135.2 1388.82 127.2C1384.68 119.067 1382.62 109.6 1382.62 98.8C1382.62 87.8667 1384.75 78.3333 1389.02 70.2C1393.28 61.9333 1399.28 55.4667 1407.02 50.8C1414.88 46.1333 1424.15 43.8 1434.82 43.8C1442.82 43.8 1449.82 45.1333 1455.82 47.8C1461.95 50.4667 1467.08 54.2 1471.22 59C1475.48 63.8 1478.62 69.4 1480.62 75.8C1482.75 82.0667 1483.75 88.8667 1483.62 96.2C1483.62 98.0667 1483.55 99.8667 1483.42 101.6C1483.28 103.333 1483.02 105.067 1482.62 106.8H1410.42C1410.82 110.8 1411.95 114.467 1413.82 117.8C1415.68 121.133 1418.28 123.8 1421.62 125.8C1425.08 127.667 1429.35 128.6 1434.42 128.6C1437.75 128.6 1440.82 128.267 1443.62 127.6C1446.42 126.8 1448.82 125.6 1450.82 124C1452.82 122.4 1454.22 120.533 1455.02 118.4H1482.62C1480.88 126.267 1477.62 132.733 1472.82 137.8C1468.15 142.867 1462.48 146.6 1455.82 149C1449.15 151.267 1442.15 152.4 1434.82 152.4ZM1411.02 87.2H1456.82C1456.68 83.6 1455.75 80.2667 1454.02 77.2C1452.42 74 1449.95 71.4667 1446.62 69.6C1443.42 67.6 1439.28 66.6 1434.22 66.6C1429.15 66.6 1424.88 67.6 1421.42 69.6C1418.08 71.6 1415.55 74.2 1413.82 77.4C1412.22 80.4667 1411.28 83.7333 1411.02 87.2ZM1535.06 152.4C1530.26 152.4 1525.59 151.8 1521.06 150.6C1516.66 149.267 1512.72 147.267 1509.26 144.6C1505.79 141.933 1503.06 138.6 1501.06 134.6C1499.06 130.6 1498.06 125.933 1498.06 120.6C1498.06 113.4 1499.52 107.667 1502.46 103.4C1505.39 99 1509.32 95.6667 1514.26 93.4C1519.19 91.1333 1524.86 89.6 1531.26 88.8C1537.79 88 1544.52 87.6 1551.46 87.6H1566.66C1566.66 83.7333 1565.92 80.3333 1564.46 77.4C1563.12 74.3333 1561.06 72 1558.26 70.4C1555.46 68.6667 1551.86 67.8 1547.46 67.8C1544.66 67.8 1541.92 68.2 1539.26 69C1536.72 69.6667 1534.59 70.6667 1532.86 72C1531.12 73.3333 1529.99 75.0667 1529.46 77.2H1501.06C1501.86 71.3333 1503.72 66.3333 1506.66 62.2C1509.59 57.9333 1513.26 54.4667 1517.66 51.8C1522.06 49.1333 1526.86 47.2 1532.06 46C1537.39 44.6667 1542.86 44 1548.46 44C1563.79 44 1575.12 48.4 1582.46 57.2C1589.79 65.8667 1593.46 78.2 1593.46 94.2V151H1568.26L1567.86 137.4C1564.52 142.067 1560.72 145.467 1556.46 147.6C1552.32 149.733 1548.32 151.067 1544.46 151.6C1540.59 152.133 1537.46 152.4 1535.06 152.4ZM1541.46 130.2C1546.12 130.2 1550.39 129.267 1554.26 127.4C1558.12 125.533 1561.19 123 1563.46 119.8C1565.72 116.6 1566.86 113 1566.86 109V106.4H1547.66C1544.86 106.4 1542.12 106.533 1539.46 106.8C1536.92 107.067 1534.59 107.6 1532.46 108.4C1530.46 109.067 1528.86 110.2 1527.66 111.8C1526.46 113.4 1525.86 115.533 1525.86 118.2C1525.86 120.867 1526.52 123.133 1527.86 125C1529.32 126.733 1531.26 128.067 1533.66 129C1536.06 129.8 1538.66 130.2 1541.46 130.2ZM1615.33 151V45.6H1640.53L1642.33 58.2C1644.99 54.2 1647.99 51.2 1651.33 49.2C1654.66 47.0667 1658.13 45.6667 1661.73 45C1665.33 44.2 1668.99 43.8 1672.73 43.8C1674.46 43.8 1676.06 43.8667 1677.53 44C1678.99 44 1680.06 44 1680.73 44V71H1674.13C1667.86 71 1662.39 72.0667 1657.73 74.2C1653.06 76.3333 1649.46 79.6667 1646.93 84.2C1644.53 88.7333 1643.33 94.5333 1643.33 101.6V151H1615.33ZM1797.49 152.4C1786.69 152.4 1777.42 150.2 1769.69 145.8C1762.09 141.4 1756.29 135.2 1752.29 127.2C1748.29 119.067 1746.29 109.533 1746.29 98.6C1746.29 87.5333 1748.36 77.9333 1752.49 69.8C1756.62 61.5333 1762.56 55.1333 1770.29 50.6C1778.16 46.0667 1787.62 43.8 1798.69 43.8C1807.22 43.8 1814.82 45.3333 1821.49 48.4C1828.16 51.4667 1833.49 55.8667 1837.49 61.6C1841.62 67.3333 1844.02 74.4 1844.69 82.8H1817.29C1816.09 78.1333 1813.76 74.7333 1810.29 72.6C1806.96 70.4667 1802.96 69.4 1798.29 69.4C1792.29 69.4 1787.49 70.8667 1783.89 73.8C1780.42 76.7333 1777.89 80.4667 1776.29 85C1774.82 89.5333 1774.09 94.0667 1774.09 98.6C1774.09 103.533 1774.89 108.2 1776.49 112.6C1778.09 116.867 1780.62 120.4 1784.09 123.2C1787.69 125.867 1792.36 127.2 1798.09 127.2C1802.89 127.2 1807.09 126.133 1810.69 124C1814.29 121.733 1816.62 118.267 1817.69 113.6H1845.69C1845.02 122.267 1842.42 129.467 1837.89 135.2C1833.36 140.933 1827.56 145.267 1820.49 148.2C1813.56 151 1805.89 152.4 1797.49 152.4ZM1911.79 152.4C1901.13 152.4 1891.79 150.267 1883.79 146C1875.79 141.6 1869.59 135.4 1865.19 127.4C1860.79 119.267 1858.59 109.667 1858.59 98.6C1858.59 87.2667 1860.79 77.5333 1865.19 69.4C1869.73 61.1333 1875.99 54.8 1883.99 50.4C1891.99 46 1901.19 43.8 1911.59 43.8C1922.26 43.8 1931.53 46.0667 1939.39 50.6C1947.26 55.1333 1953.39 61.4667 1957.79 69.6C1962.19 77.7333 1964.39 87.4667 1964.39 98.8C1964.39 109.867 1962.19 119.467 1957.79 127.6C1953.53 135.6 1947.46 141.733 1939.59 146C1931.86 150.267 1922.59 152.4 1911.79 152.4ZM1911.39 126.8C1917.53 126.8 1922.46 125.467 1926.19 122.8C1929.93 120.133 1932.59 116.667 1934.19 112.4C1935.93 108 1936.79 103.4 1936.79 98.6C1936.79 93.8 1935.93 89.2 1934.19 84.8C1932.59 80.4 1929.93 76.8 1926.19 74C1922.59 71.0667 1917.66 69.6 1911.39 69.6C1905.39 69.6 1900.53 71.0667 1896.79 74C1893.06 76.8 1890.33 80.4 1888.59 84.8C1886.99 89.2 1886.19 93.8 1886.19 98.6C1886.19 103.533 1886.99 108.133 1888.59 112.4C1890.33 116.667 1893.06 120.133 1896.79 122.8C1900.53 125.467 1905.39 126.8 1911.39 126.8ZM2025.72 152.4C2015.05 152.4 2006.19 150 1999.12 145.2C1992.19 140.267 1986.99 133.733 1983.52 125.6C1980.05 117.333 1978.32 108.2 1978.32 98.2C1978.32 87.6667 1980.19 78.3333 1983.92 70.2C1987.65 61.9333 1993.19 55.4667 2000.52 50.8C2007.85 46.1333 2016.99 43.8 2027.92 43.8C2031.65 43.8 2035.32 44.2667 2038.92 45.2C2042.65 46 2046.05 47.2667 2049.12 49C2052.32 50.6 2055.05 52.7333 2057.32 55.4V9.4H2085.32V151H2058.12L2057.72 139.2C2055.32 142.267 2052.39 144.8 2048.92 146.8C2045.59 148.667 2041.99 150.067 2038.12 151C2034.25 151.933 2030.12 152.4 2025.72 152.4ZM2031.32 127.2C2037.32 127.2 2042.19 125.8 2045.92 123C2049.79 120.2 2052.65 116.6 2054.52 112.2C2056.39 107.8 2057.32 103.067 2057.32 98C2057.32 92.8 2056.39 88.0667 2054.52 83.8C2052.79 79.4 2049.99 75.9333 2046.12 73.4C2042.39 70.7333 2037.45 69.4 2031.32 69.4C2025.19 69.4 2020.25 70.8 2016.52 73.6C2012.79 76.4 2010.12 80.0667 2008.52 84.6C2007.05 89 2006.32 93.7333 2006.32 98.8C2006.32 102.533 2006.72 106.133 2007.52 109.6C2008.45 112.933 2009.92 115.933 2011.92 118.6C2013.92 121.267 2016.52 123.4 2019.72 125C2022.92 126.467 2026.79 127.2 2031.32 127.2ZM2107.32 151V45.6H2135.32V151H2107.32ZM2121.32 35C2116.12 35 2111.92 33.4667 2108.72 30.4C2105.52 27.2 2103.92 23.1333 2103.92 18.2C2103.92 13 2105.59 8.79999 2108.92 5.59999C2112.25 2.39999 2116.45 0.799991 2121.52 0.799991C2126.19 0.799991 2130.19 2.39999 2133.52 5.59999C2136.99 8.66666 2138.72 12.8 2138.72 18C2138.72 23.0667 2137.05 27.2 2133.72 30.4C2130.52 33.4667 2126.39 35 2121.32 35ZM2157.52 151V45.6H2183.72L2185.12 57.8C2188.05 54.2 2191.38 51.4 2195.12 49.4C2198.98 47.2667 2202.85 45.8 2206.72 45C2210.72 44.2 2214.32 43.8 2217.52 43.8C2227.65 43.8 2235.52 46 2241.12 50.4C2246.85 54.8 2250.92 60.7333 2253.32 68.2C2255.85 75.5333 2257.12 83.7333 2257.12 92.8V151H2229.12V96.4C2229.12 93.2 2228.85 90 2228.32 86.8C2227.78 83.6 2226.78 80.6667 2225.32 78C2223.98 75.3333 2222.05 73.2 2219.52 71.6C2216.98 70 2213.65 69.2 2209.52 69.2C2204.18 69.2 2199.72 70.5333 2196.12 73.2C2192.52 75.8667 2189.85 79.4667 2188.12 84C2186.38 88.5333 2185.52 93.5333 2185.52 99V151H2157.52ZM2329.41 199.8C2321.14 199.8 2313.54 198.467 2306.61 195.8C2299.68 193.267 2293.81 189.2 2289.01 183.6C2284.21 178 2280.94 170.8 2279.21 162H2307.81C2308.74 164.667 2310.21 166.867 2312.21 168.6C2314.34 170.467 2316.88 171.867 2319.81 172.8C2322.88 173.733 2326.08 174.2 2329.41 174.2C2335.68 174.2 2340.54 172.867 2344.01 170.2C2347.48 167.533 2349.88 164 2351.21 159.6C2352.54 155.333 2353.21 150.6 2353.21 145.4V138C2350.81 141.867 2347.81 144.8 2344.21 146.8C2340.61 148.8 2336.81 150.2 2332.81 151C2328.94 151.933 2325.21 152.4 2321.61 152.4C2310.54 152.4 2301.54 149.933 2294.61 145C2287.68 140.067 2282.61 133.6 2279.41 125.6C2276.21 117.467 2274.61 108.733 2274.61 99.4C2274.61 89.1333 2276.41 79.8 2280.01 71.4C2283.61 63 2289.01 56.3333 2296.21 51.4C2303.41 46.4667 2312.41 44 2323.21 44C2329.74 44 2335.54 45.0667 2340.61 47.2C2345.68 49.2 2350.01 52.2 2353.61 56.2L2356.01 45.6H2381.61V137.6C2381.61 150.4 2379.94 161.4 2376.61 170.6C2373.28 179.933 2367.74 187.133 2360.01 192.2C2352.41 197.267 2342.21 199.8 2329.41 199.8ZM2327.81 127.2C2333.68 127.2 2338.48 125.867 2342.21 123.2C2346.08 120.533 2348.94 117 2350.81 112.6C2352.68 108.067 2353.61 103.2 2353.61 98C2353.61 92.5333 2352.68 87.6667 2350.81 83.4C2348.94 79 2346.14 75.5333 2342.41 73C2338.68 70.3333 2333.88 69 2328.01 69C2321.61 69 2316.54 70.5333 2312.81 73.6C2309.08 76.5333 2306.41 80.2667 2304.81 84.8C2303.34 89.2 2302.61 93.8667 2302.61 98.8C2302.61 103.867 2303.41 108.6 2305.01 113C2306.61 117.267 2309.28 120.733 2313.01 123.4C2316.74 125.933 2321.68 127.2 2327.81 127.2Z" fill="#F0F0F0"/>
</svg>
