<svg xmlns="http://www.w3.org/2000/svg" width="750" height="500"><path fill="#ad1519" d="M0 0h750v500H0z"/><path fill="#fabd00" d="M0 125h750v250H0z"/><path fill="#b50027" d="M250 223c-11 0-21-1-28-3a107 107 0 0 1 56 0c-8 2-17 3-28 3"/><g stroke="#000"><path fill="none" stroke-width=".2" d="M336 219c0-5 4-10 10-10s10 5 10 10c0 6-4 10-10 10s-10-4-10-10z" transform="matrix(.20370392 0 0 .22203612 157 149)"/><path fill="#b50027" stroke-width="1.2" d="M452 135c32 0 60 5 78 12 11 5 25 8 40 10 12 2 23 2 33 1 13 0 31 4 50 12 16 7 29 15 37 24l-7 6-2 19-21 23-10 9-24 19-13 1-3 11-157-18-157 18-4-11-12-1-24-19-11-9-20-23-2-19-8-6c9-9 22-17 37-24 19-8 38-12 51-12a158 158 0 0 0 72-11c19-7 45-12 77-12z" transform="matrix(.20370392 0 0 .22203612 157 149)"/><g fill="#9f7e00" stroke-width="1.9"><path d="m565 182-10-17a37 37 0 0 0 17-35c-1-21-26-38-58-38-16 0-31 5-42 12l-1-9c12-6 27-10 43-10 37 0 66 20 67 45a50 50 0 0 1 0 4c0 14-6 25-15 34l5 8zm-222 0 10-17a37 37 0 0 1-18-35c1-21 26-38 58-38 17 0 32 5 42 12l1-9c-11-6-27-10-43-10-37 0-65 20-67 45a50 50 0 0 0 0 4c0 14 6 25 16 34l-6 8z" transform="matrix(.20370392 0 0 .22203612 157 149)"/><path d="M591 140c0-16-11-30-27-40a42 42 0 0 1 17 34c0 14-6 25-15 34l5 8c12-9 20-22 20-36zM226 193c-7-8-11-18-11-29a43 43 0 0 1 4-19c10-21 42-36 80-36 10 0 20 1 29 3l-5 7-24-2c-35 0-64 13-72 31a35 35 0 0 0-3 16c0 11 5 21 13 27l-13 21-6-5 8-14zM454 80c8 0 15 6 17 13l2 22v6c1 17 3 31 6 40l-25 25-26-25c3-9 6-23 6-40v-6l2-22c2-7 9-13 18-13z" transform="matrix(.20370392 0 0 .22203612 157 149)"/></g><g fill="none" stroke-width="1.1"><path stroke-width=".1" d="M193 230v-7m-1 7v-7" transform="matrix(1.09360078 0 0 1.24173256 43 -61)"/><path stroke-width=".3" d="M190 230v-7m-2 7v-7m-1 7v-7m-3 6v-6m1 6v-6" transform="matrix(1.09360078 0 0 1.24173256 43 -61)"/><path stroke-width=".5" d="M181 229v-6m2 6v-6m-5 6v-5m1 5v-5m1 5v-5" transform="matrix(1.09360078 0 0 1.24173256 43 -61)"/><path stroke-width=".8" d="M177 229v-5m-1 5v-5m-2 5v-5m-2 4v-4m1 4v-4" transform="matrix(1.09360078 0 0 1.24173256 43 -61)"/><path d="M171 228v-4m-2 4v-3m-1 2v-2m-1 2v-2m-2 2v-2" transform="matrix(1.09360078 0 0 1.24173256 43 -61)"/><path stroke-width=".1" d="M200 229v-6m-3 6v-6m-2 6v-6" transform="matrix(1.09360078 0 0 1.24173256 43 -61)"/></g><g stroke-width="1.9"><g fill="#9f7e00"><path d="M454 294c-58 0-110 7-148 18-2 1-4 3-4 6 0 2 2 5 4 5 38 12 90 19 148 19 59 0 111-7 148-19 3 0 4-3 4-5 0-3-1-5-4-6-37-11-89-18-148-18zm0 9c53 0 101 6 137 16a568 568 0 0 1-273 0c36-10 84-16 136-16z" transform="matrix(.20370392 0 0 .22203612 157 149)"/><path d="M454 294c-59 0-112 7-149 19 3-2 2-6-1-16-5-12-12-11-12-11 41-12 98-20 162-20s122 8 163 20c0 0-7-1-12 11-4 10-4 14-1 16-37-12-91-19-150-19" transform="matrix(.20370392 0 0 .22203612 157 149)"/><path d="M454 266c-64 0-121 8-162 20-3 1-6 0-7-3-1-2 1-5 3-6 42-13 101-21 166-21 66 0 125 8 166 21 3 1 4 4 4 6-1 3-4 4-7 3-41-12-99-20-163-20" transform="matrix(.20370392 0 0 .22203612 157 149)"/></g><path fill="#fff" d="M409 281c0-3 2-5 5-5s5 2 5 5c0 2-2 5-5 5s-5-3-5-5" transform="matrix(.20370392 0 0 .22203612 157 149)"/><path fill="#b50027" d="M454 285h-15c-3 0-6-3-6-5 0-3 3-5 6-5h31c3 0 5 2 5 5 0 2-2 5-5 5z" transform="matrix(.20370392 0 0 .22203612 157 149)"/><path fill="#006f46" d="m376 289-11 1c-3 0-6-1-6-4-1-3 1-5 4-6l12-1 11-1c3-1 5 1 6 4 0 3-2 5-5 5z" transform="matrix(.20370392 0 0 .22203612 157 149)"/><path fill="#fff" d="M330 290c0-3 2-5 5-5s6 2 6 5-3 5-6 5-5-2-5-5" transform="matrix(.20370392 0 0 .22203612 157 149)"/><path fill="#b50027" d="m296 297 5-6 16 2-13 10-7-3-2-1z" transform="matrix(.20370392 0 0 .22203612 157 149)"/><path fill="#006f46" d="m533 289 11 1c3 0 6-1 6-4s-2-5-5-6l-11-1-11-1c-3-1-6 1-6 4-1 3 2 5 4 5z" transform="matrix(.20370392 0 0 .22203612 157 149)"/><path fill="#fff" d="M490 281c0-3 2-5 5-5s5 2 5 5c0 2-2 5-5 5s-5-3-5-5m78 9c0-3 2-5 5-5s6 2 6 5-3 5-6 5-5-2-5-5" transform="matrix(.20370392 0 0 .22203612 157 149)"/><path fill="#b50027" d="m613 299-5-8-16 2 12 10 9-3h1z" transform="matrix(.20370392 0 0 .22203612 157 149)"/></g><path fill="#9f7e00" stroke-width="1.9" d="M454 88c4 0 8 3 9 7l2 21v5c0 16 2 30 6 38l-17 16-17-16c3-8 5-22 6-38v-5l2-21c1-4 4-7 9-7z" transform="matrix(.20370392 0 0 .22203612 157 149)"/></g><path fill="#fff" d="m248 185 2-1 2 1-2 2-2-2"/><g stroke="#000"><path fill="none" stroke-width="1.9" d="M445 164c0-4 4-8 9-8s9 4 9 8c0 5-4 9-9 9s-9-4-9-9z" transform="matrix(.20370392 0 0 .22203612 157 149)"/><g stroke-width="1.9"><path fill="#fff" d="M445 148c0-5 4-9 9-9s9 4 9 9c0 4-4 8-9 8s-9-4-9-8m2-18c0-4 3-7 7-7s7 3 7 7-3 6-7 6-7-3-7-6m2-17c0-2 2-5 5-5s5 3 5 5c0 3-2 5-5 5s-5-2-5-5m1-14c0-2 1-4 4-4 2 0 4 2 4 4s-2 4-4 4c-3 0-4-2-4-4" transform="matrix(.20370392 0 0 .22203612 157 149)"/><path fill="#9f7e00" d="m455 216 5 1-1 8c0 12 11 22 24 22 10 0 19-6 22-15l3-8 1 8c2 11 12 19 23 19a23 23 0 0 0 24-25l7-7 4 9c-2 3-2 6-2 10 0 11 10 21 22 21 8 0 15-4 19-9l4-6v7c0 7 3 14 10 15 0 0 9 0 20-8l17-16v9s-9 14-18 20c-6 3-14 6-21 5-6-1-11-7-14-13-5 3-11 5-17 5-13 0-25-8-30-19a35 35 0 0 1-51-1 34 34 0 0 1-51-6c-7 9-17 15-29 15-9 0-17-4-23-9a35 35 0 0 1-51 1 33 33 0 0 1-47 14c-3 6-8 12-15 13-6 1-14-2-20-5-9-6-19-20-19-20l1-9s6 7 17 16 19 8 19 8c8-1 11-8 11-15v-7l4 6c4 5 11 9 19 9 12 0 22-10 22-21 0-4 0-7-2-10l4-9 7 7v3c0 12 11 22 24 22 11 0 21-8 23-19l1-8 3 8c3 9 12 15 22 15a23 23 0 0 0 22-30l7-1" transform="matrix(.20370392 0 0 .22203612 157 149)"/><path fill="#fff" d="M615 245c2-4 0-8-3-8-2-1-6 1-7 5-2 4 0 8 3 9 2 1 6-2 7-6m-102-19c1-5-1-8-4-9-3 0-6 3-6 7-1 4 1 8 4 8 3 1 6-2 6-6m-118 0c0-5 2-8 5-9 3 0 6 3 6 7 1 4-1 8-4 8-3 1-6-2-7-6m-101 19c-2-4 0-8 2-8 3-1 7 1 8 5s0 8-3 9c-2 1-6-2-7-6" transform="matrix(.20370392 0 0 .22203612 157 149)"/><g fill="#9f7e00"><path d="M340 226c-2-1-3-3-3-5-1-2 0-4 1-6l-9-3-11-1h-6l2 2 2 4c-6 1-11 5-14 10 4 3 11 5 17 4l-1 4v3l5-2 10-4 7-6m14-2a8 8 0 0 0-2-11s3-4 7-6l10-5 5-2v3l-1 4c6 0 12 2 17 5-3 5-9 9-15 10l3 3 1 3h-5l-12-1-8-3M349 192l3-3 5-2-1 7-1 11-3 8a9 9 0 0 0-8-2c-3 0-5 2-6 4l-6-6-5-10-4-6h6l4 2c-1-7 1-13 5-18 5 4 9 9 11 15z" transform="matrix(.20370392 0 0 .22203612 157 149)"/></g><path fill="#b50027" d="M336 219c0-5 4-10 10-10s10 5 10 10c0 6-4 10-10 10s-10-4-10-10" transform="matrix(.20370392 0 0 .22203612 157 149)"/><g fill="#9f7e00"><path d="m463 180 5-3h6l-3 6-4 12-5 9c-2-2-5-4-8-4s-6 2-8 4l-5-9-4-12-2-6h6l4 3c1-7 4-14 9-18 5 4 9 11 9 18zM446 216l-2-6 2-6-9-6-12-3-6-1 1 3 2 5c-7 0-14 4-18 8 4 5 11 8 18 8l-2 5-1 3 6-1 12-3 9-6m16 0c2-1 3-4 3-6s-1-5-3-6l9-6 13-3 6-1-1 3-2 5c7 0 13 4 18 8-5 5-11 8-18 8a33 33 0 0 0 3 8l-6-1-13-3-9-6m98-24-3-3-6-2 2 7 1 11 3 8a9 9 0 0 1 8-2c2 0 5 2 6 4l6-6 5-10 4-6h-6l-4 2c1-7-1-13-5-18-5 4-9 9-11 15zM569 226c1-1 3-3 3-5a8 8 0 0 0-1-6s4-2 9-3l11-1h5l-1 2-2 4c6 1 11 5 14 10-5 3-11 5-17 4l1 4v3l-5-2-10-4-7-6m-14-2-1-6 3-5s-3-4-7-6l-10-5-5-2v3l1 4c-6 0-12 2-17 5 3 5 9 9 15 10l-3 3-1 3h5l12-1 8-3" transform="matrix(.20370392 0 0 .22203612 157 149)"/></g><path fill="#b50027" d="M553 219c0-5 4-10 10-10s10 5 10 10c0 6-4 10-10 10s-10-4-10-10m115 22c-2-3-7-2-11 1s-5 8-3 11c3 2 8 2 12-2 3-3 4-8 2-10" transform="matrix(.20370392 0 0 .22203612 157 149)"/><path fill="#9f7e00" d="m653 247 4-5c4-3 9-4 11-1l1 1s5-10 11-13 17-3 17-3c0-7-6-13-14-13-5 0-10 2-12 5l-1-5s-7 1-10 9c-3 7 1 18 1 18l-4-8-12-8-7-4v7c-6-1-13 0-18 2 2 5 6 9 12 11l-4 4-2 2 6 1c2 0 9 2 13 1l8-1m-397 0-4-5c-4-3-9-4-11-1l-1 1s-5-10-11-13-17-3-17-3c0-7 6-13 14-13 5 0 9 2 12 5l1-5s7 1 10 9c3 7-1 18-1 18l4-8 12-8 7-4v7c6-1 13 0 18 2-2 5-7 9-12 11a66 66 0 0 0 6 6l-6 1c-2 0-9 2-13 1l-8-1" transform="matrix(.20370392 0 0 .22203612 157 149)"/><path fill="#b50027" d="M241 241c2-3 7-2 11 1s5 8 3 11c-3 2-8 2-12-2-3-3-4-8-2-10m203-31c0-5 5-10 10-10s11 5 11 10-5 10-11 10c-5 0-10-5-10-10" transform="matrix(.20370392 0 0 .22203612 157 149)"/></g><g stroke-width="1.2"><path fill="#0044ad" d="M433 62c0-11 9-20 21-20s21 9 21 20-9 20-21 20-21-9-21-20" transform="matrix(.20370392 0 0 .22203612 157 149)"/><path fill="#9f7e00" d="M448 6v10h-11v11h11v32h-14l-1 3 1 7 1 1h38v-1l2-7-1-3h-14V27h11V16h-11V6z" transform="matrix(.20370392 0 0 .22203612 157 149)"/></g></g><path fill="#fff" d="m298 196 1-1 1 1-1 1-1-1"/><path fill="none" stroke="#000" stroke-width="1.8" d="M685 211c0-3 3-5 5-5 3 0 5 2 5 5s-2 5-5 5c-2 0-5-2-5-5z" transform="matrix(.2091873 0 0 .22203612 155 149)"/><path fill="#fff" d="m300 193 1-1 1 1-1 1-1-1"/><path fill="none" stroke="#000" stroke-width="1.8" d="M692 198c0-3 3-5 5-5 3 0 5 2 5 5s-2 5-5 5c-2 0-5-2-5-5z" transform="matrix(.2091873 0 0 .22203612 155 149)"/><path fill="#fff" d="m301 190 1-1 1 1-1 1-1-1"/><path fill="none" stroke="#000" stroke-width="1.8" d="M697 184c0-3 2-5 5-5s5 2 5 5c0 2-2 5-5 5s-5-3-5-5z" transform="matrix(.2091873 0 0 .22203612 155 149)"/><path fill="#fff" d="m301 186 1-1 1 1-1 1-1-1"/><path fill="none" stroke="#000" stroke-width="1.8" d="M697 168c0-3 3-5 6-5 2 0 5 2 5 5s-3 5-5 5c-3 0-6-2-6-5z" transform="matrix(.2091873 0 0 .22203612 155 149)"/><path fill="#fff" d="m300 183 1-1 1 1-1 1-1-1"/><path fill="none" stroke="#000" stroke-width="1.8" d="M694 152c0-2 2-5 5-5s5 3 5 5c0 3-2 5-5 5s-5-2-5-5z" transform="matrix(.2091873 0 0 .22203612 155 149)"/><path fill="#fff" d="m298 180 1-1 1 1-1 1-1-1"/><path fill="none" stroke="#000" stroke-width="1.8" d="M686 138c0-2 2-5 5-5s5 3 5 5c0 3-2 5-5 5s-5-2-5-5z" transform="matrix(.2091873 0 0 .22203612 155 149)"/><path fill="#fff" d="m296 177 1-1 1 1-1 1-1-1"/><path fill="none" stroke="#000" stroke-width="1.8" d="M675 127c0-3 3-5 6-5 2 0 5 2 5 5s-3 5-5 5c-3 0-6-2-6-5z" transform="matrix(.2091873 0 0 .22203612 155 149)"/><path fill="#fff" d="m294 175 1-1 1 1-1 1-1-1"/><path fill="none" stroke="#000" stroke-width="1.8" d="M663 117c0-2 3-5 5-5 3 0 6 3 6 5 0 3-3 5-6 5-2 0-5-2-5-5z" transform="matrix(.2091873 0 0 .22203612 155 149)"/><path fill="#fff" d="m291 173 1-1 1 1-1 1-1-1"/><path fill="none" stroke="#000" stroke-width="1.8" d="M649 109c0-2 2-4 5-4s5 2 5 4c0 3-2 5-5 5s-5-2-5-5z" transform="matrix(.2091873 0 0 .22203612 155 149)"/><path fill="#fff" d="m287 172 1-1 2 1-2 1-1-1"/><path fill="#9f7e00" stroke="#000" stroke-width="1.8" d="M675 193c7-8 11-18 11-29a41 43 0 0 0-4-19c-10-21-41-36-78-36-10 0-19 1-28 3l5 7 23-2c34 0 62 13 70 31a34 35 0 0 1 4 16c0 11-5 21-13 27l12 21 7-5-9-14z" transform="matrix(.2091873 0 0 .22203612 155 149)"/><path fill="none" stroke="#000" stroke-width="1.8" d="M634 104c0-3 2-5 5-5s5 2 5 5-2 5-5 5-5-2-5-5z" transform="matrix(.2091873 0 0 .22203612 155 149)"/><path fill="#fff" d="m284 171 1-1 1 1-1 1-1-1"/><path fill="none" stroke="#000" stroke-width="1.8" d="M617 101c0-3 2-5 5-5s5 2 5 5-2 5-5 5-5-2-5-5z" transform="matrix(.2091873 0 0 .22203612 155 149)"/><path fill="#fff" d="m281 171 1-1 1 1-1 1-1-1"/><path fill="none" stroke="#000" stroke-width="1.8" d="M601 100c0-3 2-5 5-5s5 2 5 5-2 5-5 5-5-2-5-5z" transform="matrix(.2091873 0 0 .22203612 155 149)"/><path fill="#fff" d="m277 171 1-1 1 1-1 1-1-1"/><path fill="none" stroke="#000" stroke-width="1.8" d="M586 100c0-2 2-4 5-4 2 0 5 2 5 4 0 3-3 5-5 5-3 0-5-2-5-5z" transform="matrix(.2091873 0 0 .22203612 155 149)"/><path fill="#fff" d="m274 171 1-1 1 1-1 1-1-1"/><g stroke="#000" stroke-width="1.9"><path fill="none" d="M573 100c0-2 2-4 5-4s5 2 5 4c0 3-2 5-5 5s-5-2-5-5z" transform="matrix(.20370392 0 0 .22203612 157 149)"/><path fill="#fff" d="M581 114c0-2 2-5 5-5s5 3 5 5c0 3-2 5-5 5s-5-2-5-5m3 15c0-2 3-4 6-4 2 0 5 2 5 4 0 3-3 5-5 5-3 0-6-2-6-5m1 16c0-3 2-5 5-5s5 2 5 5c0 2-2 5-5 5s-5-3-5-5m-5 13c0-2 3-5 5-5 3 0 6 3 6 5 0 3-3 5-6 5-2 0-5-2-5-5m-9 13c0-3 3-5 6-5 2 0 5 2 5 5s-3 5-5 5c-3 0-6-2-6-5" transform="matrix(.20370392 0 0 .22203612 157 149)"/></g><path fill="#fff" d="m272 169 1-1 1 1-1 1-1-1"/><path fill="none" stroke="#000" stroke-width="1.8" d="M558 91c0-3 2-5 5-5s5 2 5 5-2 5-5 5-5-2-5-5z" transform="matrix(.2091873 0 0 .22203612 155 149)"/><path fill="#fff" d="m269 167 1-1 1 1-1 1-1-1"/><path fill="none" stroke="#000" stroke-width="1.8" d="M544 83c0-3 2-5 5-5s5 2 5 5-2 5-5 5-5-2-5-5z" transform="matrix(.2091873 0 0 .22203612 155 149)"/><path fill="#fff" d="m265 166 2-1 1 1-1 1-2-1"/><path fill="none" stroke="#000" stroke-width="1.8" d="M529 78c0-2 2-5 5-5s5 3 5 5c0 3-2 5-5 5s-5-2-5-5z" transform="matrix(.2091873 0 0 .22203612 155 149)"/><path fill="#fff" d="m262 166 1-1 1 1-1 1-1-1"/><path fill="none" stroke="#000" stroke-width="1.8" d="M513 76c0-3 2-5 5-5s5 2 5 5c0 2-2 4-5 4s-5-2-5-5z" transform="matrix(.2091873 0 0 .22203612 155 149)"/><path fill="#fff" d="m259 166 1-1 1 1-1 1-1-1"/><path fill="none" stroke="#000" stroke-width="1.8" d="M497 76c0-3 3-5 6-5 2 0 5 2 5 5s-3 5-5 5c-3 0-6-2-6-5z" transform="matrix(.2091873 0 0 .22203612 155 149)"/><path fill="#fff" d="m255 166 2-1 1 1-1 1-2-1"/><path fill="none" stroke="#000" stroke-width="1.8" d="M481 79c0-3 3-5 5-5 3 0 5 2 5 5 0 2-2 5-5 5-2 0-5-3-5-5z" transform="matrix(.2091873 0 0 .22203612 155 149)"/><path fill="#fff" d="m252 168 1-2 1 2-1 1-1-1"/><path fill="none" stroke="#000" stroke-width="1.8" d="M466 84c0-3 2-5 5-5s5 2 5 5-2 5-5 5-5-2-5-5z" transform="matrix(.2091873 0 0 .22203612 155 149)"/><path fill="#fff" d="m199 196 1-1 1 1-1 1-1-1"/><path fill="none" stroke="#000" stroke-width="1.8" d="M212 211c0-3 2-5 5-5s5 2 5 5-2 5-5 5-5-2-5-5z" transform="matrix(.2091873 0 0 .22203612 155 149)"/><path fill="#fff" d="m198 193 1-1 1 1-1 1-1-1"/><path fill="none" stroke="#000" stroke-width="1.8" d="M205 198c0-3 2-5 5-5s5 2 5 5-2 5-5 5-5-2-5-5z" transform="matrix(.2091873 0 0 .22203612 155 149)"/><path fill="#fff" d="m197 190 1-1 1 1-1 1-1-1"/><path fill="none" stroke="#000" stroke-width="1.8" d="M200 184c0-3 3-5 6-5 2 0 5 2 5 5 0 2-3 5-5 5-3 0-6-3-6-5z" transform="matrix(.2091873 0 0 .22203612 155 149)"/><path fill="#fff" d="m197 186 1-1 1 1-1 1-1-1"/><path fill="none" stroke="#000" stroke-width="1.8" d="M200 168c0-3 2-5 5-5s5 2 5 5-2 5-5 5-5-2-5-5z" transform="matrix(.2091873 0 0 .22203612 155 149)"/><path fill="#fff" d="m197 183 1-1 2 1-2 1-1-1"/><path fill="none" stroke="#000" stroke-width="1.8" d="M204 152c0-2 2-5 5-5s5 3 5 5c0 3-2 5-5 5s-5-2-5-5z" transform="matrix(.2091873 0 0 .22203612 155 149)"/><path fill="#fff" d="m199 180 1-1 1 1-1 1-1-1"/><path fill="none" stroke="#000" stroke-width="1.8" d="M211 138c0-2 3-5 6-5 2 0 5 3 5 5 0 3-3 5-5 5-3 0-6-2-6-5z" transform="matrix(.2091873 0 0 .22203612 155 149)"/><path fill="#fff" d="m201 177 1-1 1 1-1 1-1-1"/><path fill="none" stroke="#000" stroke-width="1.8" d="M222 127c0-3 2-5 5-5s5 2 5 5-2 5-5 5-5-2-5-5z" transform="matrix(.2091873 0 0 .22203612 155 149)"/><path fill="#fff" d="m204 175 1-1 1 1-1 1-1-1"/><path fill="none" stroke="#000" stroke-width="1.8" d="M234 117c0-2 2-5 5-5s5 3 5 5c0 3-2 5-5 5s-5-2-5-5z" transform="matrix(.2091873 0 0 .22203612 155 149)"/><path fill="#fff" d="m207 173 1-1 1 1-1 1-1-1"/><path fill="none" stroke="#000" stroke-width="1.8" d="M248 109c0-2 3-4 6-4 2 0 5 2 5 4 0 3-3 5-5 5-3 0-6-2-6-5z" transform="matrix(.2091873 0 0 .22203612 155 149)"/><path fill="#fff" d="m210 172 1-1 1 1-1 1-1-1"/><path fill="none" stroke="#000" stroke-width="1.8" d="M263 104c0-3 3-5 6-5 2 0 5 2 5 5s-3 5-5 5c-3 0-6-2-6-5z" transform="matrix(.2091873 0 0 .22203612 155 149)"/><path fill="#fff" d="m213 171 2-1 1 1-1 1-2-1"/><path fill="none" stroke="#000" stroke-width="1.8" d="M280 101c0-3 3-5 5-5 3 0 5 2 5 5s-2 5-5 5c-2 0-5-2-5-5z" transform="matrix(.2091873 0 0 .22203612 155 149)"/><path fill="#fff" d="m217 171 1-1 1 1-1 1-1-1"/><path fill="none" stroke="#000" stroke-width="1.8" d="M296 100c0-3 2-5 5-5s5 2 5 5-2 5-5 5-5-2-5-5z" transform="matrix(.2091873 0 0 .22203612 155 149)"/><path fill="#fff" d="m220 171 1-1 1 1-1 1-1-1"/><path fill="none" stroke="#000" stroke-width="1.8" d="M312 100c0-2 2-4 5-4s5 2 5 4c0 3-2 5-5 5s-5-2-5-5z" transform="matrix(.2091873 0 0 .22203612 155 149)"/><path fill="#fff" d="m223 171 1-1 1 1-1 1-1-1"/><g stroke="#000" stroke-width="1.9"><path fill="none" d="M324 100c0-2 2-4 5-4s5 2 5 4c0 3-2 5-5 5s-5-2-5-5z" transform="matrix(.20370392 0 0 .22203612 157 149)"/><path fill="#9f7e00" d="M337 176c-13-9-21-22-21-36 0-16 11-30 27-40-10 8-16 19-17 30a44 44 0 0 0 0 4c0 14 6 25 16 34l-5 8" transform="matrix(.20370392 0 0 .22203612 157 149)"/><path fill="#fff" d="M316 114c0-2 2-5 5-5s5 3 5 5c0 3-2 5-5 5s-5-2-5-5m-3 15c0-2 2-4 5-4s5 2 5 4c0 3-2 5-5 5s-5-2-5-5m-1 16c0-3 2-5 5-5s6 2 6 5c0 2-3 5-6 5s-5-3-5-5m5 13c0-2 2-5 5-5s5 3 5 5c0 3-2 5-5 5s-5-2-5-5m9 13c0-3 2-5 5-5s5 2 5 5-2 5-5 5-5-2-5-5" transform="matrix(.20370392 0 0 .22203612 157 149)"/></g><path fill="#fff" d="m226 169 1-1 1 1-1 1-1-1"/><path fill="none" stroke="#000" stroke-width="1.8" d="M339 91c0-3 3-5 5-5 3 0 5 2 5 5s-2 5-5 5c-2 0-5-2-5-5z" transform="matrix(.2091873 0 0 .22203612 155 149)"/><path fill="#fff" d="m229 167 1-1 1 1-1 1-1-1"/><path fill="none" stroke="#000" stroke-width="1.8" d="M353 83c0-3 2-5 5-5s5 2 5 5-2 5-5 5-5-2-5-5z" transform="matrix(.2091873 0 0 .22203612 155 149)"/><path fill="#fff" d="m232 166 1-1 1 1-1 1-1-1"/><path fill="none" stroke="#000" stroke-width="1.8" d="M368 78c0-2 3-5 6-5 2 0 5 3 5 5 0 3-3 5-5 5-3 0-6-2-6-5z" transform="matrix(.2091873 0 0 .22203612 155 149)"/><path fill="#fff" d="m235 166 1-1 1 1-1 1-1-1"/><path fill="none" stroke="#000" stroke-width="1.8" d="M384 76c0-3 3-5 5-5 3 0 6 2 6 5 0 2-3 4-6 4-2 0-5-2-5-5z" transform="matrix(.2091873 0 0 .22203612 155 149)"/><path fill="#fff" d="m238 166 2-1 1 1-1 1-2-1"/><path fill="none" stroke="#000" stroke-width="1.8" d="M400 76c0-3 2-5 5-5s5 2 5 5-2 5-5 5-5-2-5-5z" transform="matrix(.2091873 0 0 .22203612 155 149)"/><path fill="#fff" d="m242 166 1-1 1 1-1 1-1-1"/><path fill="none" stroke="#000" stroke-width="1.8" d="M416 79c0-3 2-5 5-5s5 2 5 5c0 2-2 5-5 5s-5-3-5-5z" transform="matrix(.2091873 0 0 .22203612 155 149)"/><path fill="#fff" d="m245 168 1-2 1 2-1 1-1-1"/><g stroke="#000" stroke-width="1.9"><path fill="none" d="M430 84c0-3 3-5 6-5s5 2 5 5-2 5-5 5-6-2-6-5z" transform="matrix(.20370392 0 0 .22203612 157 149)"/><path fill="#9f7e00" d="M239 124c-9 6-16 13-20 21a43 43 0 0 0-4 19c0 11 4 21 11 29l-7 12c-8-9-12-20-12-32 0-20 13-37 32-49zm429 0c9 6 16 13 20 21a43 43 0 0 1 4 19c0 11-4 21-11 29l8 12c7-9 11-20 11-32 0-20-12-37-32-49z" transform="matrix(.20370392 0 0 .22203612 157 149)"/></g><path fill="#b50027" d="m322 219-1 1-1-1-1 1-1-1-2 1h-2l-1-1h-1v-2l2-2h16l3 2v1l-1 1-1 1h-3l-1-1-1 1-1-1-1 1-2-1"/><g stroke="#000"><path fill="none" d="M810 314s-3 4-6 4c-2 1-6-2-6-2l-5 3c-3 1-7-3-7-3l-5 5-5-2-3 3h-2l-3-2-3-3-3-1-2-5v-3c-1-3 4-7 11-8h9c3-3 9-4 16-4 6 0 11 1 14 3 3-2 8-3 15-3 6 0 12 1 15 4h10c6 1 11 5 11 8l-1 3-1 5-3 1-4 3-2 2h-3l-3-3-5 2c-3-1-5-5-5-5s-4 4-7 3l-5-3s-3 3-6 2c-2 0-6-4-6-4z" transform="matrix(.20370392 0 0 .22203612 157 149)"/><g fill="#9f7e00"><path d="M803 294c0-5 3-9 7-9s7 4 7 9-3 9-7 9-7-4-7-9z" transform="matrix(.20370392 0 0 .22203612 157 149)"/><path d="M807 294c0-5 1-9 3-9s3 4 3 9-1 9-3 9-3-4-3-9z" transform="matrix(.20370392 0 0 .22203612 157 149)"/></g></g><path fill="#9f7e00" d="M315 223v-1l7-1 8 1h-1v1l-7-1-6 1h-1"/><path fill="none" stroke="#000" d="m768 332-3-5c9-3 22-4 36-4s26 1 35 4l-2 5-2 3c-8-2-18-4-31-4s-26 2-32 5l-1-4" transform="matrix(.2091873 0 0 .22203612 155 149)"/><path fill="#c8b100" d="M322 225h6l1-1v-1l-7-1-6 1-1 1 1 1h6"/><g stroke="#000"><path fill="#9f7e00" d="M810 344c12 0 24-2 29-3 3-1 5-2 5-4l-2-2c-7-2-19-4-32-4-12 0-25 2-32 4l-2 2c0 2 2 3 5 4 5 1 18 3 29 3z" transform="matrix(.20370392 0 0 .22203612 157 149)"/><path fill="#e6e6e6" d="m838 298 2-2 2 2-2 2-2-2m-1-7 2-2 2 2-2 2-2-2zm-5-4c0-2 1-2 2-2s2 0 2 2l-2 2c-2 0-2-1-2-2zm-7-3 2-2 2 2c0 2-1 2-2 2s-2 0-2-2zm-7 1 2-2 2 2-2 2-2-2z" transform="matrix(.20370392 0 0 .22203612 157 149)"/><path fill="none" stroke-linecap="round" d="m859 312 1-5c0-8-6-14-13-14a13 13 0 0 0-7 2" transform="matrix(.20370392 0 0 .22203612 157 149)"/><path fill="none" d="m835 302 2-4c0-5-6-10-13-10l-8 2" transform="matrix(.20370392 0 0 .22203612 157 149)"/><path fill="#e6e6e6" d="m861 306 2-2c2 0 3 1 3 2s-1 2-3 2l-2-2zm-1-8c0-1 1-2 3-2l2 2-2 2c-2 0-3-1-3-2zm-4-5c0-2 1-2 2-2s2 0 2 2l-2 2-2-2zm-7-3c0-2 1-3 2-3 2 0 2 1 2 2 0 2 0 3-2 3-1 0-2-1-2-3zm-7 0 2-2c2 0 3 1 3 2s-1 2-3 2l-2-2z" transform="matrix(.20370392 0 0 .22203612 157 149)"/></g><path fill="#9f7e00" d="M330 220h-2l-1-1-1 1-1-1-2 1-1-1-1 1-1-1-1 1-1-1-1 1h-2v1l7-1 8 1v-1"/><g stroke="#000"><path fill="none" d="m847 322-3-3s-2 2-6 2c-3-1-4-5-4-5s-4 3-7 3-5-3-5-3-3 2-6 2-6-4-6-4-3 4-6 4c-3 1-5-2-5-2s-2 3-6 3c-3 1-7-3-7-3s-2 4-4 5l-6-2-1 2-2 1 1 3a136 136 0 0 1 72 0l1-3z" transform="matrix(.20370392 0 0 .22203612 157 149)"/><path fill="#e6e6e6" d="M777 298c0-1 1-2 3-2l2 2-2 2c-2 0-3-1-3-2zm2-7 2-2 2 2-2 2-2-2zm5-4c0-2 1-2 2-2s2 0 2 2l-2 2-2-2zm7-3 2-2 2 2c0 2-1 2-2 2s-2 0-2-2zm7 1 2-2 2 2-2 2-2-2z" transform="matrix(.20370392 0 0 .22203612 157 149)"/><path fill="none" stroke-linecap="round" d="m760 312-1-5c0-8 6-14 14-14l6 2" transform="matrix(.20370392 0 0 .22203612 157 149)"/><path fill="none" d="m785 302-2-4c0-5 6-10 13-10l8 2" transform="matrix(.20370392 0 0 .22203612 157 149)"/><path fill="#e6e6e6" d="m754 306 2-2c2 0 3 1 3 2s-1 2-3 2l-2-2zm1-8 2-2 2 2-2 2-2-2zm5-5c0-2 1-2 2-2s2 0 2 2l-2 2-2-2zm6-3c0-2 1-3 3-3l2 2c0 2-1 3-2 3-2 0-3-1-3-3zm7 0 2-2c2 0 3 1 3 2s-1 2-3 2l-2-2z" transform="matrix(.20370392 0 0 .22203612 157 149)"/><path fill="#9f7e00" d="M810 310h1v2c0 2 3 5 6 5 2 0 4-2 5-4v-2l1 2c0 3 2 5 5 5s5-3 5-5v-1l2-2 1 2-1 3c0 2 2 4 5 4 2 0 3 0 4-2l1-1v2c0 1 1 3 3 3l4-2 4-3v2l-5 5-4 1c-2 0-3-1-3-3a7 7 0 0 1-4 1c-3 0-6-1-7-4-1 2-3 2-5 2l-6-2-6 2c-2 0-5-2-6-4-1 2-4 4-6 4a8 8 0 0 1-5-2l-6 2c-3 0-5 0-6-2-1 3-4 4-7 4a7 7 0 0 1-3-1c-1 2-2 3-4 3l-4-1-5-5v-2l4 3 4 2c2 0 3-2 3-3v-2l1 1a5 5 0 0 0 4 2c3 0 5-2 5-4v-3l1-2 1 2v1c0 2 3 5 5 5 3 0 5-2 6-5v-2l1 2c0 2 2 4 5 4a5 5 0 0 0 5-7h1z" transform="matrix(.20370392 0 0 .22203612 157 149)"/></g><path fill="#c8b100" d="m322 221-7 1v-1l7-1 8 1v1l-8-1"/><path fill="#9f7e00" stroke="#000" d="M801 323c-14 0-27 1-36 4l-1-1 1-1c9-3 21-5 36-5 14 0 27 2 36 5l1 1-2 1c-9-3-21-4-35-4z" transform="matrix(.2091873 0 0 .22203612 155 149)"/><path fill="#fff" d="M320 222v-1 1"/><path fill="#e6e6e6" stroke="#000" d="m787 328 2-2 2 2-2 2-2-2z" transform="matrix(.2091873 0 0 .22203612 155 149)"/><path fill="#b50027" d="M322 222h-1v-1h2l1 1h-1z"/><path fill="none" stroke="#000" d="M801 329h-5l-1-2 1-1h10l1 1-1 2z" transform="matrix(.2091873 0 0 .22203612 155 149)"/><path fill="#006f46" d="M318 222h-1 1v-1l1 1h-1z"/><path fill="none" stroke="#000" d="m778 330-3 1-2-2 2-1 3-1h3l2 1-1 2z" transform="matrix(.2091873 0 0 .22203612 155 149)"/><path fill="#b50027" d="M315 223v-1h1v1z"/><path fill="none" stroke="#000" d="m765 333 2-3 3 1-2 2z" transform="matrix(.2091873 0 0 .22203612 155 149)"/><path fill="#fff" d="m324 222 1-1v1h-1"/><path fill="#e6e6e6" stroke="#000" d="m810 328 2-2 2 2-2 2-2-2z" transform="matrix(.2091873 0 0 .22203612 155 149)"/><path fill="#006f46" d="M327 222h1-1l-1-1v1z"/><path fill="none" stroke="#000" d="m823 330 3 1 2-2-1-1-3-1h-4l-1 1c-1 1 0 2 1 2z" transform="matrix(.2091873 0 0 .22203612 155 149)"/><path fill="#b50027" d="m330 223-1-1v1h1"/><path fill="none" stroke="#000" d="m836 333-1-3h-3l1 3h3z" transform="matrix(.2091873 0 0 .22203612 155 149)"/><path fill="#b50027" d="m322 225-6-1a24 24 0 0 1 12 0l-6 1"/><path fill="none" stroke="#000" stroke-linejoin="round" d="M801 341c-12 0-22-1-29-3a120 120 0 0 1 58 0c-8 2-18 3-29 3z" transform="matrix(.2091873 0 0 .22203612 155 149)"/><path fill="#c8b100" d="M330 219h-1 1"/><path fill="#e6e6e6" stroke="#000" d="M836 316v-2l-2 2 1 2 1-2z" transform="matrix(.2091873 0 0 .22203612 155 149)"/><path fill="#c8b100" d="M325 218"/><path fill="#e6e6e6" stroke="#000" d="m814 312-1-2-2 2 1 1 2-1z" transform="matrix(.2091873 0 0 .22203612 155 149)"/><path fill="#c8b100" d="M320 218"/><path fill="#e6e6e6" stroke="#000" d="m788 312 1-2 1 2-1 1-1-1z" transform="matrix(.2091873 0 0 .22203612 155 149)"/><path fill="#c8b100" d="M315 219"/><g stroke="#000"><path fill="#e6e6e6" d="M774 316v-2l2 2-1 2-1-2z" transform="matrix(.20370392 0 0 .22203612 157 149)"/><g fill="#9f7e00"><path d="m810 299-4 2 3 7h2l3-7-4-2z" transform="matrix(.20370392 0 0 .22203612 157 149)"/><path d="m801 308 2 3 6-2 1-1-1-1-6-1a45 45 0 0 0-2 2zm18 0-2 3-6-2-1-1 1-1 6-1 2 2zm-36-7-3 3 4 6h1l1-1 2-6a203 203 0 0 0-5-2z" transform="matrix(.20370392 0 0 .22203612 157 149)"/><path d="m777 312 2 3 6-4v-1l-7-1-1 3zm17-3-1 3-7-1v-2l6-3 2 3zm-24 4v3l-7 1-1-1v-1l5-4 3 2z" transform="matrix(.20370392 0 0 .22203612 157 149)"/></g></g><path fill="#c8b100" d="M317 218v-1l1 1h-1"/><g stroke="#000"><path fill="#b50027" d="M783 310c0-1 1-2 3-2l2 2c0 2-1 3-2 3-2 0-3-1-3-3z" transform="matrix(.20370392 0 0 .22203612 157 149)"/><g fill="#9f7e00"><path d="m837 301 3 3-4 6h-1l-1-1-2-6a83 83 0 0 0 5-2z" transform="matrix(.20370392 0 0 .22203612 157 149)"/><path d="m843 312-2 3-6-4v-1h1l6-1 1 3zm-17-3 1 3 7-1 1-1-1-1-6-3-2 3z" transform="matrix(.20370392 0 0 .22203612 157 149)"/></g></g><path fill="#c8b100" d="M330 218v1h2l-1-1h-1"/><path fill="#9f7e00" stroke="#000" d="M839 313v3l7 1 1-1-1-1-5-4-2 2z" transform="matrix(.2091873 0 0 .22203612 155 149)"/><path fill="#c8b100" d="M322 217h1l-1 1v-1"/><path fill="#b50027" stroke="#000" d="m799 308 2-2 2 2c0 2-1 3-2 3s-2-1-2-3z" transform="matrix(.2091873 0 0 .22203612 155 149)"/><path fill="#c8b100" d="M327 218v-1l1 1h-1"/><path fill="#b50027" stroke="#000" d="m822 310 3-2 2 2c0 2-1 3-2 3s-3-1-3-3z" transform="matrix(.2091873 0 0 .22203612 155 149)"/><path fill="#c8b100" d="M323 211v1h-1v-2h-1v-1h2v2"/><g stroke="#000"><path fill="none" d="M813 282v3h-7v-3h3v-6h-3v-3h3v-3h3v3h2v3h-2v6h1z" transform="matrix(.20370392 0 0 .22203612 157 149)"/><path fill="#0044ad" d="M812 278c2 1 4 3 4 5 0 3-3 6-6 6s-6-3-6-6c0-2 2-4 5-5" transform="matrix(.20370392 0 0 .22203612 157 149)"/><path fill="#9f7e00" d="M761 317a23 23 0 0 0-3-4l-3-1c0-1 1-2 3-2l2 1v-1l2 2v3l-1 2z" transform="matrix(.20370392 0 0 .22203612 157 149)"/><path fill="#b50027" d="M761 316h3l1 2h-3l-1-2z" transform="matrix(.20370392 0 0 .22203612 157 149)"/></g><path fill="#c8b100" d="m332 219 1-1h-1v1"/><path fill="#9f7e00" stroke="#000" d="m847 317 3-4 4-1-3-2-2 1v-1l-2 2v5z" transform="matrix(.2091873 0 0 .22203612 155 149)"/><path fill="#c8b100" d="m332 219-1 1h1v-1"/><g stroke="#000"><path fill="#b50027" d="M858 316h-3v2h2l1-2z" transform="matrix(.20370392 0 0 .22203612 157 149)"/><path fill="#9f7e00" d="M816 282v3h-12v-3h5v-6h-3v-3h3v-3h3v3h2v3h-2v6h3z" transform="matrix(.20370392 0 0 .22203612 157 149)"/><g fill="none"><path stroke-width=".1" d="M810 341v-6m-2 6v-6" transform="matrix(.20370392 0 0 .22203612 157 149)"/><path stroke-width=".2" d="M807 341v-6m-2 6v-6m-1 6v-6m-3 6v-5m2 5v-6" transform="matrix(.20370392 0 0 .22203612 157 149)"/><path stroke-width=".5" d="M799 341v-5m1 5v-5m-4 5v-5m1 5v-5m1 5v-5" transform="matrix(.20370392 0 0 .22203612 157 149)"/><path stroke-width=".7" d="M795 341v-5m-2 5v-5m-1 5v-5m-2 4v-4m1 4v-4" transform="matrix(.20370392 0 0 .22203612 157 149)"/><path d="M789 340v-3m-1 3v-3m-1 2v-2m-2 2v-2m-1 2v-1" transform="matrix(.20370392 0 0 .22203612 157 149)"/><path stroke-width=".1" d="M816 341v-5m-2 5v-6m-2 6v-6" transform="matrix(.20370392 0 0 .22203612 157 149)"/></g></g><path fill="#dead00" d="M311 231h22v-6h-22z"/><path fill="#9f7e00" stroke="#000" stroke-width="1.9" d="M757 371h106v-28H757z" transform="matrix(.20370392 0 0 .22203612 157 149)"/><path fill="#dead00" d="M331 235h-17l1-1-1-1h17l-1 1 1 1"/><path fill="#9f7e00" stroke="#000" stroke-linejoin="round" stroke-width="1.9" d="m852 390-2-1h-80l-2 1c3-1 5-4 5-7 0-2-2-5-5-6h84-1c-2 1-4 4-4 6 0 3 2 6 5 7z" transform="matrix(.20370392 0 0 .22203612 157 149)"/><path fill="#dead00" d="M314 235h16l1 1-1 1h-16l-1-1 1-1"/><path fill="#9f7e00" stroke="#000" stroke-width="1.9" d="M770 389h80c2 0 5 2 5 4s-3 4-5 4h-80c-2 0-5-2-5-4s3-4 5-4z" transform="matrix(.20370392 0 0 .22203612 157 149)"/><path fill="#dead00" d="M314 231h16l1 1-1 1h-16l-1-1 1-1"/><path fill="#9f7e00" stroke="#000" stroke-width="1.9" d="M770 371h80c2 0 5 2 5 3 0 2-3 3-5 3h-80c-2 0-5-1-5-3 0-1 3-3 5-3z" transform="matrix(.20370392 0 0 .22203612 157 149)"/><path fill="#dead00" d="M331 325c0 2 1 3 2 3h-22a3 3 0 0 0 3-3h17"/><path fill="#9f7e00" stroke="#000" stroke-linejoin="round" stroke-width="1.9" d="m852 792-1 3c0 7 6 12 13 12H755c8 0 14-5 14-12l-1-3h84z" transform="matrix(.20370392 0 0 .22203612 157 149)"/><path fill="#dead00" d="M314 323h16l1 1-1 1h-16l-1-1 1-1"/><path fill="#9f7e00" stroke="#000" stroke-width="1.9" d="M770 785h80c2 0 5 1 5 3s-3 4-5 4h-80c-2 0-5-2-5-4s3-3 5-3z" transform="matrix(.20370392 0 0 .22203612 157 149)"/><path fill="#dead00" d="M311 334h22v-6h-22z"/><path fill="#9f7e00" stroke="#000" stroke-width="1.9" d="M755 835h109v-28H755z" transform="matrix(.20370392 0 0 .22203612 157 149)"/><path fill="#ce1126" d="m335 301 4 4-2 2c-2 1-3 3-2 4l-2-5 2-5"/><path fill="#b50027" stroke="#000" stroke-width="1.9" d="M873 686c11 7 18 13 17 16s-4 5-9 8c-8 6-13 15-9 20a27 27 0 0 1 1-44z" transform="matrix(.20370392 0 0 .22203612 157 149)"/><path fill="#b2b2b2" d="M314 322h16v-84h-16z"/><path fill="none" stroke="#000" stroke-width="1.9" d="M827 401v378m9-378v378m-65 1h78V401h-78z" transform="matrix(.20370392 0 0 .22203612 157 149)"/><path fill="#ce1126" d="M298 269a46 46 0 0 1 24-2c9 2 16 6 16 9v1l3-9c1-4-7-9-17-11h-10l-16 2v10"/><path fill="#b50027" stroke="#000" stroke-linejoin="round" stroke-width="1.9" d="M692 543a246 246 0 0 1 116-10c46 8 81 26 79 41l-1 1 18-40c3-17-36-37-87-46-17-3-32-4-46-3-33 0-61 4-78 10l-1 47" transform="matrix(.20370392 0 0 .22203612 157 149)"/><path fill="#ce1126" d="M330 280c5 0 8-2 8-4 0-1-1-3-4-5l-4 1v8"/><path fill="#b50027" stroke="#000" stroke-width="1.9" d="M849 590c21-1 36-7 38-16 1-7-6-15-19-22l-19 1v37" transform="matrix(.20370392 0 0 .22203612 157 149)"/><path fill="#ce1126" d="m314 274-5 2c-1 1 1 3 5 6z"/><path fill="#b50027" stroke="#000" stroke-width="1.9" d="M771 561c-13 3-23 6-28 10l-1 1c-2 5 10 15 29 27z" transform="matrix(.20370392 0 0 .22203612 157 149)"/><path fill="#b50027" d="M340 296c0-1-4-4-10-6l-8-4c-8-4-14-8-13-10l-2 8c0 2 5 6 13 10l10 5c5 1 9 5 9 6l1-9"/><g stroke="#000"><path fill="none" stroke-linejoin="round" stroke-width="1.9" d="M897 664c2-7-19-19-49-30l-38-16c-41-18-71-39-68-46l1-1c-2 2-6 39-6 39-4 7 24 28 62 46 12 6 38 15 50 19 21 8 43 22 41 27l7-38z" transform="matrix(.20370392 0 0 .22203612 157 149)"/><path fill="#9f7e00" stroke-width=".5" d="M741 526c2-11 6-22 10-32a26 26 0 0 1-5 0l-7 24-13-21-5 1-5 1 20 28 2-1h3m29-32h-9v30l21 1v-4h-13l1-27m33 5 10 1v-2l1-2-29-2v4h10l-3 28h9l2-27m12 30 4 1 4 1 4-14 3 5 4 11 5 1 5 1-2-3-6-14c5 0 9-2 10-6 1-3 0-6-3-8l-9-2-11-3-8 30m15-26c4 1 8 1 8 5l-1 2c-1 5-4 6-10 5l3-12m40 35-1 10 4 2 4 3 3-35a20 20 0 0 1-2-1 17 17 0 0 1-2-1l-30 19 2 2 3 1 8-6 11 6zm-8-8 10-6-1 11z" transform="matrix(.20370392 0 0 .22203612 157 149)"/></g><path fill="#005bbf" d="m307 335 4-1 4-1 4 1 3 1 4-1 4-1 4 1 3 1v3l-3-1-4-1-4 1-4 1-3-1-4-1-4 1-4 1v-3"/><path fill="#0045af" stroke="#000" stroke-width="1.9" d="M736 839c7 0 14-2 18-4 5-3 12-4 19-4s14 1 18 4c5 2 12 4 19 4s14-2 19-4c4-3 11-4 18-4s13 1 18 4c5 2 12 4 19 4v11c-7 0-14-1-19-4-5-2-11-4-18-4s-14 2-18 4c-5 3-12 4-19 4s-14-1-19-4c-4-2-11-4-18-4s-14 2-19 4c-4 3-11 4-18 4z" transform="matrix(.20370392 0 0 .22203612 157 149)"/><path fill="#b2b2b2" d="m307 338 4-1 4-1 4 1 3 1 4-1 4-1 4 1 3 1v2l-3-1-4-1-4 1-4 1-3-1-4-1-4 1-4 1v-2"/><path fill="none" stroke="#000" stroke-width="1.9" d="M736 850c7 0 14-1 18-4 5-2 12-4 19-4s14 2 18 4c5 3 12 4 19 4s14-1 19-4c4-2 11-4 18-4s13 2 18 4c5 3 12 4 19 4v12c-7 0-14-2-19-4-5-3-11-4-18-4s-14 1-18 3a41 41 0 0 1-37 0c-5-2-12-3-19-3s-14 1-19 4c-4 2-11 4-18 4v-12" transform="matrix(.20370392 0 0 .22203612 157 149)"/><path fill="#005bbf" d="m307 340 4-1 4-1 4 1 3 1 4-1 4-1 4 1 3 1v3l-3-1-4-1-4 1-4 1-3-1-4-1-4 1-4 1v-3"/><path fill="#0045af" stroke="#000" stroke-width="1.9" d="M736 862c7 0 14-2 18-4 5-3 12-4 19-4s14 1 18 4c5 2 12 4 19 4s14-2 19-5c4-2 11-3 18-3s13 1 18 4c5 2 12 4 19 4v11c-7 0-14-1-19-4-5-2-11-4-18-4s-14 2-18 4c-5 2-12 4-19 4s-14-1-19-4c-4-2-11-4-18-4s-14 2-19 4c-4 3-11 4-18 4v-11" transform="matrix(.20370392 0 0 .22203612 157 149)"/><path fill="#b2b2b2" d="m307 345 4-1h8l3 1 4-1h8l3 1v-2l-3-1-4-1-4 1-4 1-3-1-4-1-4 1-4 1v2"/><path fill="none" stroke="#000" stroke-width="1.9" d="M736 885c7 0 14-2 18-4 5-3 12-4 19-4s14 1 18 4c5 2 12 4 19 4s14-2 19-5c4-2 11-3 18-3s13 1 18 3c5 3 12 5 19 5v-12c-7 0-14-1-19-4-5-2-11-4-18-4s-14 2-18 4c-5 2-12 4-19 4s-14-1-19-4c-4-2-11-4-18-4s-14 2-19 4c-4 3-11 4-18 4v12" transform="matrix(.20370392 0 0 .22203612 157 149)"/><path fill="#005bbf" d="m307 348 4-1 4-1 4 1 3 1 4-1 4-1 4 1 3 1v-3l-3-1h-8l-4 1-3-1h-8l-4 1v3"/><path fill="#0045af" stroke="#000" stroke-width="1.9" d="M736 896c7 0 14-1 18-4 5-2 12-4 19-4s14 2 18 4c5 3 12 4 19 4s14-2 19-4c4-3 11-4 18-4s13 1 18 4c5 2 12 4 19 4v-11c-7 0-14-2-19-5-5-2-11-3-18-3s-14 1-18 3a41 41 0 0 1-37 0c-5-2-12-3-19-3s-14 1-19 4c-4 2-11 4-18 4z" transform="matrix(.20370392 0 0 .22203612 157 149)"/><path fill="#ce1126" d="M170 221v-1l-1-1h-1l-1-1v-2l1-2h2l1-1h1l1-1h8l2 1h2l2 1 1 1v3l-1 1v1l-1 1-8-1-8 1"/><g stroke="#000"><path fill="#b50027" stroke-linejoin="round" d="m64 323-3-1-6-5-3-2-3-4s-3-6-2-10c2-4 4-6 7-7l7-3 6-2 6-1 3-2h4l5-2 8 1h24l7 2 10 3 11 3 5 5 3 5v6l-3 4-3 4-4 3s-2 3-4 3c-3 0-24-4-38-4s-37 4-37 4z" transform="matrix(.20370392 0 0 .22203612 157 149)"/><g fill="#9f7e00"><path d="M94 292c0-7 3-12 7-12 3 0 6 5 6 12 0 6-3 11-6 11s-7-5-7-11z" transform="matrix(.20370392 0 0 .22203612 157 149)"/><path d="M98 292c0-6 1-11 3-11s3 4 3 11c0 6-1 10-3 10s-3-4-3-10z" transform="matrix(.20370392 0 0 .22203612 157 149)"/><path d="M101 322H78v-6l-2-5-1-8c-6-8-12-14-14-12l2-4c6-3 18 5 26 18l3 4h18a82 82 0 0 1 3-4c8-13 20-21 25-18l3 4c-2-2-8 4-14 12l-1 8-2 5v6z" transform="matrix(.20370392 0 0 .22203612 157 149)"/></g><path fill="none" d="M62 290c5-2 15 6 23 18m55-18c-5-2-15 6-23 18" transform="matrix(.20370392 0 0 .22203612 157 149)"/></g><path fill="#9f7e00" d="m171 223-1-1 8-1 7 1-1 1-6-1-7 1"/><path fill="none" stroke="#000" d="m67 332-3-5c9-3 22-4 37-4 14 0 27 1 36 4l-2 5-2 3c-8-2-19-4-32-4-14 0-26 2-33 5l-1-4" transform="matrix(.20370392 0 0 .22203612 157 149)"/><path fill="#c8b100" d="M178 225h6l1-1-1-1-6-1-7 1v1l1 1h6"/><path fill="#9f7e00" stroke="#000" d="M101 344c11 0 24-2 29-3 3-1 5-2 4-4l-1-2c-7-2-20-4-32-4-13 0-25 2-32 4l-2 2c0 2 1 3 5 4s17 3 29 3z" transform="matrix(.20370392 0 0 .22203612 157 149)"/><path fill="#9f7e00" d="M185 220h-1l-1-1-2 1-1-1-1 1-1-1-1 1-2-1-1 1-1-1-1 1h-2l1 1 7-1 7 1v-1"/><path fill="none" stroke="#000" d="m138 322-3-3s-3 2-6 2c-3-1-4-5-4-5s-4 3-7 3-5-3-5-3-4 2-7 2-6-4-6-4-2 4-5 4c-3 1-6-2-6-2s-1 3-5 3c-4 1-7-3-7-3s-2 4-5 5l-6-2v2l-2 1 1 3a136 136 0 0 1 72 0l1-3z" transform="matrix(.20370392 0 0 .22203612 157 149)"/><path fill="#9f7e00" stroke="#000" d="M101 310h1v2c0 2 2 5 5 5s5-2 5-4l1-2v2c0 3 3 5 5 5 3 0 6-3 6-5v-1l1-2 1 2v3c0 2 2 4 5 4 2 0 3 0 4-2l1-1v2l2 3 5-2 4-3v2l-5 5-4 1c-2 0-3-1-4-3a7 7 0 0 1-3 1c-3 0-6-1-7-4-2 2-4 2-6 2l-6-2-5 2c-3 0-5-2-6-4-2 2-4 4-7 4a8 8 0 0 1-5-2l-6 2c-2 0-4 0-5-2-1 3-4 4-7 4a7 7 0 0 1-4-1c0 2-2 3-3 3l-5-1-4-5v-2l4 3 4 2c2 0 2-2 2-3v-2l1 1a5 5 0 0 0 5 2c3 0 5-2 5-4l-1-3 1-2 2 2v1c0 2 2 5 5 5s5-2 5-5l1-2v2c1 2 3 4 5 4a5 5 0 0 0 5-7h2z" transform="matrix(.20370392 0 0 .22203612 157 149)"/><path fill="#c8b100" d="m178 221-8 1v-1l8-1 7 1h1l-1 1-7-1"/><path fill="#9f7e00" stroke="#000" d="M101 323c-15 0-28 1-37 4l-1-1v-1c10-3 23-5 38-5 14 0 28 2 37 5l1 1-2 1c-9-3-22-4-36-4z" transform="matrix(.20370392 0 0 .22203612 157 149)"/><path fill="#fff" d="M175 222v-1l1 1h-1"/><path fill="#e6e6e6" stroke="#000" d="m87 328 2-2 2 2-2 2-2-2z" transform="matrix(.20370392 0 0 .22203612 157 149)"/><path fill="#ce1126" d="M178 222h-1v-1h2v1z"/><path fill="#b50027" stroke="#000" d="M101 329h-5l-1-2 1-1h10l1 1-1 2z" transform="matrix(.20370392 0 0 .22203612 157 149)"/><path fill="#006f46" d="M173 222h-1 1l1-1v1z"/><path fill="none" stroke="#000" d="m78 330-4 1-1-2 1-1 3-1h4l1 1c1 1 0 2-1 2z" transform="matrix(.20370392 0 0 .22203612 157 149)"/><path fill="#ce1126" d="m170 223 1-1v1z"/><path fill="#b50027" stroke="#000" d="m64 333 2-3 3 1-2 2z" transform="matrix(.20370392 0 0 .22203612 157 149)"/><path fill="#fff" d="M180 222v-1l1 1h-1"/><path fill="#e6e6e6" stroke="#000" d="M110 328c0-1 1-2 3-2l2 2-2 2c-2 0-3-1-3-2z" transform="matrix(.20370392 0 0 .22203612 157 149)"/><path fill="#006f46" d="M183 222h1-1l-1-1v1z"/><path fill="none" stroke="#000" d="m124 330 3 1 2-2-2-1-3-1h-3l-2 1 1 2z" transform="matrix(.20370392 0 0 .22203612 157 149)"/><path fill="#ce1126" d="M185 223v-1h-1l1 1"/><path fill="#b50027" stroke="#000" d="m137 333-1-3h-4l2 3h3z" transform="matrix(.20370392 0 0 .22203612 157 149)"/><path fill="#ce1126" d="m178 225-6-1a24 24 0 0 1 12 0l-6 1"/><path fill="#b50027" stroke="#000" stroke-linejoin="round" d="M101 341c-12 0-22-1-30-3a126 126 0 0 1 60 0c-8 2-19 3-30 3z" transform="matrix(.20370392 0 0 .22203612 157 149)"/><path fill="#c8b100" d="M185 219"/><path fill="#e6e6e6" stroke="#000" d="M137 316v-2l-2 2v2l2-2z" transform="matrix(.20370392 0 0 .22203612 157 149)"/><path fill="#c8b100" d="M181 218h-1 1"/><path fill="#e6e6e6" stroke="#000" d="m114 312-1-2-1 2 1 1 1-1z" transform="matrix(.20370392 0 0 .22203612 157 149)"/><path fill="#c8b100" d="M175 218h1-1"/><path fill="#e6e6e6" stroke="#000" d="m87 312 1-2 2 2-1 1-2-1z" transform="matrix(.20370392 0 0 .22203612 157 149)"/><path fill="#c8b100" d="M170 219h1-1"/><g stroke="#000"><path fill="#e6e6e6" d="m64 316 1-2 2 2-1 2-2-2z" transform="matrix(.20370392 0 0 .22203612 157 149)"/><g fill="#9f7e00"><path d="m101 299-4 2 3 7h2l3-7-4-2z" transform="matrix(.20370392 0 0 .22203612 157 149)"/><path d="m92 308 2 3 6-2 1-1-1-1-6-1a45 45 0 0 0-2 2zm18 0-2 3-7-2v-2l7-1 2 2zm-36-7-3 3 4 6h1l1-1 1-6a203 203 0 0 0-4-2z" transform="matrix(.20370392 0 0 .22203612 157 149)"/><path d="m67 312 3 3 6-4v-1h-1l-6-1-2 3zm18-3-1 3-7-1-1-1 1-1 5-3 3 3zm-24 4-1 3-6 1-1-1v-1l5-4 3 2z" transform="matrix(.20370392 0 0 .22203612 157 149)"/></g></g><path fill="#c8b100" d="m172 218 1-1v1h-1"/><g stroke="#000"><path fill="#b50027" d="m74 310 2-2 3 2c0 2-2 3-3 3s-2-1-2-3z" transform="matrix(.20370392 0 0 .22203612 157 149)"/><g fill="#9f7e00"><path d="m127 301 4 3-5 6h-1v-1l-2-6a83 83 0 0 0 4-2z" transform="matrix(.20370392 0 0 .22203612 157 149)"/><path d="m134 312-2 3-6-4-1-1h1l7-1 1 3zm-17-3 1 3 6-1 1-1v-1l-6-3-2 3z" transform="matrix(.20370392 0 0 .22203612 157 149)"/></g></g><path fill="#c8b100" d="M186 218v1h1l-1-1"/><path fill="#9f7e00" stroke="#000" d="M140 313v3l7 1 1-1v-1l-5-4-3 2z" transform="matrix(.20370392 0 0 .22203612 157 149)"/><path fill="#c8b100" d="M177 217h1v1l-1-1"/><path fill="#b50027" stroke="#000" d="M98 308c0-1 1-2 3-2l2 2c0 2-1 3-2 3-2 0-3-1-3-3z" transform="matrix(.20370392 0 0 .22203612 157 149)"/><path fill="#c8b100" d="m182 218 1-1v1h-1"/><g stroke="#000"><path fill="#b50027" d="m123 310 2-2c2 0 3 1 3 2 0 2-1 3-3 3-1 0-2-1-2-3z" transform="matrix(.20370392 0 0 .22203612 157 149)"/><path fill="#9f7e00" d="M52 317a23 23 0 0 0-3-4l-3-1 2-2 3 1v-1l1 2 1 3-1 2z" transform="matrix(.20370392 0 0 .22203612 157 149)"/><path fill="#b50027" d="M52 316h3v2h-2l-1-2z" transform="matrix(.20370392 0 0 .22203612 157 149)"/></g><path fill="#c8b100" d="M188 219v-1h1-2v1h1"/><path fill="#9f7e00" stroke="#000" d="m149 317 3-4 3-1c0-1-1-2-3-2l-2 1v-1l-2 2v3l1 2z" transform="matrix(.20370392 0 0 .22203612 157 149)"/><path fill="#c8b100" d="M188 219h-1v1l1-1"/><g stroke="#000"><path fill="#b50027" d="M149 316h-3v2h2l1-2z" transform="matrix(.20370392 0 0 .22203612 157 149)"/><path fill="#0044ad" d="M103 272c2 1 4 3 4 5 0 3-3 6-6 6s-6-3-6-6c0-2 2-4 4-5" transform="matrix(.20370392 0 0 .22203612 157 149)"/><path fill="#9f7e00" d="M107 276v3H95v-3h4v-6h-3v-3h3v-3h3v3h3v3h-3v6h4z" transform="matrix(.20370392 0 0 .22203612 157 149)"/><g fill="none"><path stroke-width=".1" d="M100 341v-6m-1 6v-6" transform="matrix(.20370392 0 0 .22203612 157 149)"/><path stroke-width=".2" d="M97 341v-6m-1 6v-6m-2 6v-6m-2 6v-5m1 5v-6" transform="matrix(.20370392 0 0 .22203612 157 149)"/><path stroke-width=".5" d="M89 341v-5m2 5-1-5m-4 5v-5m1 5v-5m1 5v-5" transform="matrix(.20370392 0 0 .22203612 157 149)"/><path stroke-width=".7" d="M85 341v-5m-1 5v-5m-1 5v-5m-3 4v-4m2 4v-4" transform="matrix(.20370392 0 0 .22203612 157 149)"/><path d="M79 340v-3m-1 3v-3m-1 2v-2m-1 2v-2m-2 2v-1" transform="matrix(.20370392 0 0 .22203612 157 149)"/><path stroke-width=".1" d="M107 341v-5m-3 5v-6m-2 6v-6" transform="matrix(.20370392 0 0 .22203612 157 149)"/></g></g><path fill="#9f7e00" d="M167 231h22v-6h-22z"/><path fill="none" stroke="#000" stroke-width="1.9" d="M47 371h106v-28H47z" transform="matrix(.20370392 0 0 .22203612 157 149)"/><path fill="#dead00" d="M169 235h17l-1-1 1-1h-17l1 1-1 1"/><g fill="#9f7e00"><path stroke="#000" stroke-linejoin="round" stroke-width="1.9" d="m58 390 2-1h80l2 1c-3-1-5-4-5-7 0-2 2-5 5-6H58h1c2 1 4 4 4 6 0 3-2 6-5 7z" transform="matrix(.20370392 0 0 .22203612 157 149)"/><path d="M170 235h16l1 1-1 1h-16l-1-1 1-1"/><path stroke="#000" stroke-width="1.9" d="M60 389h80c2 0 5 2 5 4s-3 4-5 4H60c-2 0-5-2-5-4s3-4 5-4z" transform="matrix(.20370392 0 0 .22203612 157 149)"/></g><path fill="#dead00" d="M170 231h16l1 1-1 1h-16l-1-1 1-1"/><path fill="#9f7e00" stroke="#000" stroke-width="1.9" d="M60 371h80c2 0 5 2 5 3 0 2-3 3-5 3H60c-2 0-5-1-5-3 0-1 3-3 5-3z" transform="matrix(.20370392 0 0 .22203612 157 149)"/><path fill="#dead00" d="M169 325c0 2-1 3-2 3h22a3 3 0 0 1-3-3h-17"/><path fill="#9f7e00" stroke="#000" stroke-linejoin="round" stroke-width="1.9" d="m58 792 1 3c0 7-6 12-13 12h109c-8 0-14-5-14-12l1-3H58z" transform="matrix(.20370392 0 0 .22203612 157 149)"/><path fill="#dead00" d="M170 323h16l1 1-1 1h-16l-1-1 1-1"/><path fill="#9f7e00" stroke="#000" stroke-width="1.9" d="M60 785h80c2 0 5 1 5 3s-3 4-5 4H60c-2 0-5-2-5-4s3-3 5-3z" transform="matrix(.20370392 0 0 .22203612 157 149)"/><path fill="#9f7e00" d="M167 334h22v-6h-22z"/><path fill="none" stroke="#000" stroke-width="1.9" d="M46 835h109v-28H46z" transform="matrix(.20370392 0 0 .22203612 157 149)"/><path fill="#ce1126" d="m165 301-4 4 2 2c2 1 3 3 2 4l2-5-2-5"/><path fill="#b50027" stroke="#000" stroke-width="1.9" d="M37 686c-10 7-18 13-17 16s4 5 9 8c8 6 13 15 9 20a27 27 0 0 0-1-44z" transform="matrix(.20370392 0 0 .22203612 157 149)"/><path fill="#b2b2b2" d="M170 322h16v-84h-16z"/><path fill="none" stroke="#000" stroke-width="1.9" d="M116 402v378m9-378v378m-64 0h78V401H61z" transform="matrix(.20370392 0 0 .22203612 157 149)"/><path fill="#b50027" d="M202 269a46 46 0 0 0-24-2c-9 2-16 6-16 9v1l-3-9c-1-4 7-9 17-11h10l16 2v10"/><path fill="none" stroke="#000" stroke-linejoin="round" stroke-width="1.9" d="M218 543a246 246 0 0 0-116-10c-46 8-81 26-79 41l1 1-18-40c-3-17 36-37 87-46 17-3 32-4 46-3 33 0 61 4 78 10l1 47" transform="matrix(.20370392 0 0 .22203612 157 149)"/><path fill="#ce1126" d="M170 280c-5 0-8-2-8-4 0-1 1-3 4-5l4 1v8"/><path fill="#b50027" stroke="#000" stroke-width="1.9" d="M61 590c-21-1-36-7-38-16-1-7 6-15 19-22l19 1v37" transform="matrix(.20370392 0 0 .22203612 157 149)"/><path fill="#ce1126" d="m186 274 5 2c1 1-1 3-5 6v-8"/><path fill="#b50027" stroke="#000" stroke-width="1.9" d="M139 561c13 3 23 6 28 10l1 1c2 5-10 15-29 27v-38" transform="matrix(.20370392 0 0 .22203612 157 149)"/><path fill="#b50027" d="M160 296c0-1 4-4 10-6l8-4c8-4 14-8 13-10l2 8c0 2-5 6-13 10l-10 5c-5 1-9 5-9 6l-1-9"/><g stroke="#000"><path fill="none" stroke-linejoin="round" stroke-width="1.9" d="M13 664c-2-7 19-19 49-30l38-16c41-18 71-39 68-46l-1-1c3 2 6 39 6 39 4 7-24 28-62 46-12 6-38 15-50 19-21 8-43 22-41 27l-7-38z" transform="matrix(.20370392 0 0 .22203612 157 149)"/><path fill="#9f7e00" stroke-width=".5" d="M56 525c10-4 16-8 13-15-2-5-7-6-14-3l-13 4 11 29 4-1 4-2-5-12zm-6-14 4-1c2-1 5 0 7 3 1 3 1 6-3 8l-3 1zm36-12-4 1-4 1 7 29 21-4-1-2v-2l-13 4-6-27m42 26 13-32a26 26 0 0 1-5 0c-2 8-5 15-9 23l-11-21h-10l17 30h5m44-23 2-5-9-3c-8 0-13 3-14 8-1 11 16 10 15 17 0 3-3 5-7 4-4 0-6-2-7-5h-1l-2 5c2 2 5 3 9 3 8 1 15-3 15-8 2-11-16-11-15-17 0-3 2-4 7-4 3 0 5 2 6 5h1" transform="matrix(.20370392 0 0 .22203612 157 149)"/></g><path fill="#005bbf" d="m193 335-4-1-4-1-4 1-3 1-4-1-4-1-4 1-3 1v3l3-1 4-1 4 1 4 1 3-1 4-1 4 1 4 1v-3"/><path fill="#0044ad" stroke="#000" stroke-width="1.9" d="M174 839c-7 0-14-2-18-4-5-3-12-4-19-4s-14 1-18 4c-5 2-12 4-19 4s-14-2-19-4c-4-3-11-4-18-4s-13 1-18 4c-5 2-12 4-19 4v11c7 0 14-1 19-4 5-2 11-4 18-4s14 2 18 4c5 3 12 4 19 4s14-1 19-4c4-2 11-4 18-4s14 2 19 4c4 3 11 4 18 4v-11z" transform="matrix(.20370392 0 0 .22203612 157 149)"/><path fill="#b2b2b2" d="m193 338-4-1-4-1-4 1-3 1-4-1-4-1-4 1-3 1v2l3-1 4-1 4 1 4 1 3-1 4-1 4 1 4 1v-2"/><path fill="none" stroke="#000" stroke-width="1.9" d="M174 850c-7 0-14-1-18-4-5-2-12-4-19-4s-14 2-18 4c-5 3-12 4-19 4s-14-1-19-4c-4-2-11-4-18-4s-13 2-18 4c-5 3-12 4-19 4v12c7 0 14-2 19-4 5-3 11-4 18-4s14 1 18 3a41 41 0 0 0 37 0c5-2 12-3 19-3s14 1 19 4c4 2 11 4 18 4v-12" transform="matrix(.20370392 0 0 .22203612 157 149)"/><path fill="#005bbf" d="m193 340-4-1-4-1-4 1-3 1-4-1-4-1-4 1-3 1v3l3-1 4-1 4 1 4 1 3-1 4-1 4 1 4 1v-3"/><path fill="#0044ad" stroke="#000" stroke-width="1.9" d="M174 862c-7 0-14-2-18-4-5-3-12-4-19-4s-14 1-18 4c-5 2-12 4-19 4s-14-2-19-5c-4-2-11-3-18-3s-13 1-18 4c-5 2-12 4-19 4v11c7 0 14-1 19-4 5-2 11-4 18-4s14 2 18 4c5 2 12 4 19 4s14-1 19-4c4-2 11-4 18-4s14 2 19 4c4 3 11 4 18 4v-11" transform="matrix(.20370392 0 0 .22203612 157 149)"/><path fill="#b2b2b2" d="m193 345-4-1h-8l-3 1-4-1h-8l-3 1v-2l3-1 4-1 4 1 4 1 3-1 4-1 4 1 4 1v2"/><path fill="none" stroke="#000" stroke-width="1.9" d="M174 885c-7 0-14-2-18-4-5-3-12-4-19-4s-14 1-18 4c-5 2-12 4-19 4s-14-2-19-5c-4-2-11-3-18-3s-13 1-18 3c-5 3-12 5-19 5v-12c7 0 14-1 19-4 5-2 11-4 18-4s14 2 18 4c5 2 12 4 19 4s14-1 19-4c4-2 11-4 18-4s14 2 19 4c4 3 11 4 18 4v12" transform="matrix(.20370392 0 0 .22203612 157 149)"/><path fill="#005bbf" d="m193 348-4-1-4-1-4 1-3 1-4-1-4-1-4 1-3 1v-3l3-1h8l4 1 3-1h8l4 1v3"/><path fill="#0044ad" stroke="#000" stroke-width="1.9" d="M174 896c-7 0-14-1-18-4-5-2-12-4-19-4s-14 2-18 4c-5 3-12 4-19 4s-14-2-19-4c-4-3-11-4-18-4s-13 1-18 4c-5 2-12 4-19 4v-11c7 0 14-2 19-5 5-2 11-3 18-3s14 1 18 3a41 41 0 0 0 37 0c5-2 12-3 19-3s14 1 19 4c4 2 11 4 18 4z" transform="matrix(.20370392 0 0 .22203612 157 149)"/><path fill="#b2b2b2" d="M250 350c-12 0-25-4-36-9-7-5-13-13-13-23v-35h98v35c0 10-5 18-13 23-11 5-23 9-36 9"/><path fill="none" stroke="#000" stroke-width="2.5" d="M456 904c-62 0-124-15-176-41-38-19-63-57-63-101V604h477v158c0 44-25 82-63 101-52 26-113 41-175 41z" transform="matrix(.20370392 0 0 .22203612 157 149)"/><path fill="#b50027" d="M250 318c0 14-11 25-24 25-14 0-25-11-25-25v-35h49z"/><g stroke="#000"><g fill="#a07e00"><path fill="#9f7e00" stroke-width="2.5" d="M268 856c8 4 18 10 29 13l-1-271h-28z" transform="matrix(.20370392 0 0 .22203612 157 149)"/><path fill="#9f7e00" stroke-linejoin="round" stroke-width="2.4" d="M216 760c1 33 14 58 27 75V599h-27z" transform="matrix(.20370392 0 0 .22203612 157 149)"/><path fill="#9f7e00" stroke-width="2.5" d="M322 875h28V598h-28zm52-6c11-2 24-9 29-13V598h-28zm55-37c12-10 23-34 27-61V598h-28z" transform="matrix(.20370392 0 0 .22203612 157 149)"/></g><path fill="none" stroke-width="2.5" d="M455 762c0 63-53 114-119 114s-120-51-120-114V603h239z" transform="matrix(.20370392 0 0 .22203612 157 149)"/></g><path fill="#b50027" d="M201 283h49v-59h-49z"/><g stroke="#000"><path fill="#2b1100" stroke="none" d="M211 272v-5h4v-15h-2v-7h3v-4h-2v-5h2v1h1v-1h3v1h1v-1h2v5h-2v4h2v-10h-1v-4h1v1h1l1-1h2l1 1v-1h2v4h-2v10h2v-4h-1v-5h1v1h2v-1h2v1h1l1-1h1v5h-2v4h3v7h-2v15h4v9h-29z"/><path fill="#9f7e00" stroke-width="1.5" d="M286 464v71h-20v37h140v-37h-20v-71z" transform="matrix(.20370392 0 0 .22203612 157 149)"/><path fill="#9f7e00" d="M266 572h138m-138-9h140m-140-9h140m-140-9h140m-140-10h140m-120-9 101-1m-101-9h100m-100-8h100m-100-8h100m-100-9h100" transform="matrix(.20370392 0 0 .22203612 157 149)"/><path fill="#dead00" d="M286 482h100" transform="matrix(.20370392 0 0 .22203612 157 149)"/><path fill="#9f7e00" d="M366 473v9m-80-9h100" transform="matrix(.20370392 0 0 .22203612 157 149)"/><path fill="#dead00" d="M286 572v-9" transform="matrix(.20370392 0 0 .22203612 157 149)"/><path fill="#9f7e00" d="M286 554v-9m-9 9v9" transform="matrix(.20370392 0 0 .22203612 157 149)"/><path fill="#dead00" d="M296 563v-9" transform="matrix(.20370392 0 0 .22203612 157 149)"/><path fill="#9f7e00" d="M306 535v-9m0-10v-8m-10 37v-10" transform="matrix(.20370392 0 0 .22203612 157 149)"/><path fill="#dead00" d="M277 545v-10" transform="matrix(.20370392 0 0 .22203612 157 149)"/><path fill="#9f7e00" d="M296 516v9m20-9v9m19-9 1 10m-11-9v-9m11-8v8m-10-35v9m10-18v9m-20-9v9m-19-9v9m89 99v-9m0-9v-9m9 9v9m-20 0v-9m-9-19v-10m0-9v-8" transform="matrix(.20370392 0 0 .22203612 157 149)"/><path fill="#dead00" d="M375 545v-10" transform="matrix(.20370392 0 0 .22203612 157 149)"/><path fill="#9f7e00" d="M395 545v-10" transform="matrix(.20370392 0 0 .22203612 157 149)"/><path fill="#dead00" d="M375 516v10" transform="matrix(.20370392 0 0 .22203612 157 149)"/><path fill="#9f7e00" d="M355 516v10m-9-10v-8m0-17v9" transform="matrix(.20370392 0 0 .22203612 157 149)"/><path fill="#dead00" d="M335 482v9" transform="matrix(.20370392 0 0 .22203612 157 149)"/><g fill="#9f7e00"><path d="M346 473v9m9-17v8m20-8v8m-50 27v-9" transform="matrix(.20370392 0 0 .22203612 157 149)"/><g transform="matrix(.20370392 0 0 .22203612 156 148)"><path d="M360 576v-23c0-5-2-19-20-19s-20 14-20 19v23z"/><path d="M351 559h19v-9l-7-10-13 9 1 10zm-5-14 4-14-20-1 5 14 11 1zm14-32v-21c0-5 4-10 10-10s10 5 10 10v21z"/><rect width="19.4" height="8.8" x="310.5" y="567.6" rx="0"/><path d="M351 568h19v8h-19zm-21-9h-19v-9l5-10 14 9v10z"/></g><path d="M306 473v9M296 509v-22c0-5 3-10 10-10s10 5 10 10v22z" transform="matrix(.20370392 0 0 .22203612 157 149)"/></g><path fill="#9f7e00" stroke-width="2.7" d="M-615 44h36v98h-36zm62-45h35v143h-35zm59 45h35v98h-35z" transform="matrix(.11481364 0 0 .1175659 287 235)"/><g fill="#9f7e00"><path d="M326 436h20m-20 7h20m13-25h20m-20 10h20m-20 7h20m-20 9h20m-10-26v-5m0 22v-7m0 23v-7m-78-8h20m-20 8h20" transform="matrix(.20370392 0 0 .22203612 157 149)"/><path fill-rule="evenodd" stroke-width="1.5" d="M276 465v-33h15l4 3 1 16h12v-16l4-3h13l4 3v16h14v-15l3-4h13l4 3v16h12v-15l4-4h17v33z" transform="matrix(.20370392 0 0 .22203612 157 149)"/><path d="M276 456h120m-110 0v9m20-9v9" transform="matrix(.20370392 0 0 .22203612 157 149)"/></g><path fill="#dead00" d="M326 456v9" transform="matrix(.20370392 0 0 .22203612 157 149)"/><path fill="#9f7e00" d="M346 456v9m20-9v9m20-9v9m-90-19v10m-1-19h-19m19 10h-19m53-10h-21m55 0h-20m53 0h-21m-46 10h-21m55 0h-20m53 0h-21m-89-9v9m30 0v9m10-19v10m20-10v10m40-10 1 10m-71-15v6" transform="matrix(.20370392 0 0 .22203612 157 149)"/><path fill="#dead00" d="M336 451v5" transform="matrix(.20370392 0 0 .22203612 157 149)"/><path fill="#9f7e00" d="M355 447v9m0-24v5" transform="matrix(.20370392 0 0 .22203612 157 149)"/><path fill="#dead00" d="M375 447v9" transform="matrix(.20370392 0 0 .22203612 157 149)"/><g fill="#0044ad" stroke-width="1.8"><path stroke-width="2.7" d="M-239 351v-38c0-6 1-25-20-24-21-1-17 18-17 24v38z" transform="matrix(.11481364 0 0 .1175659 255 235)"/><path d="M-195 225v-30c0-8-3-15-10-15-6 0-9 7-9 15v30zm-107 0v-30c0-8-3-16-9-16-7 0-10 8-10 16v30z" transform="matrix(.11481364 0 0 .1175659 255 235)"/></g><path fill="#9f7e00" d="M326 428h19m-19-10h19m-19-8h19m-19-8h19m-19-8h20m-10 8v-8" transform="matrix(.20370392 0 0 .22203612 157 149)"/><path fill="#dead00" d="M336 418v-8" transform="matrix(.20370392 0 0 .22203612 157 149)"/><path fill="#9f7e00" d="M336 436v-8m0 23v-8m-45-25h20m-20 10h20m-10-10v-5m0 23v-8" transform="matrix(.20370392 0 0 .22203612 157 149)"/><g fill="#dead00"><path d="M301 451v-7" transform="matrix(.20370392 0 0 .22203612 157 149)"/><g stroke-width="1.8"><path fill="#9f7e00" stroke-width="2.7" d="m-291-29-1 36 69-1v-35h-12l-1 9h-13v-9h-17v9h-13v-9z" transform="matrix(.11481364 0 0 .1175659 255 235)"/><path d="M-291-8h68m-35 14V-8" transform="matrix(.11481364 0 0 .1175659 255 235)"/><path fill="#9f7e00" stroke-width="2.7" d="m-291-29-1 36 69-1v-35h-12l-1 9h-13v-9h-17v9h-13v-9z" transform="matrix(.11481364 0 0 .1175659 248 240)"/><path d="M-291-8h68m-35 14V-8" transform="matrix(.11481364 0 0 .1175659 248 240)"/><path fill="#9f7e00" stroke-width="2.7" d="m-291-29-1 36 69-1v-35h-12l-1 9h-13v-9h-17v9h-13v-9z" transform="matrix(.11481364 0 0 .1175659 262 240)"/><path d="M-291-8h68m-35 14V-8" transform="matrix(.11481364 0 0 .1175659 262 240)"/></g></g><g fill="none"><path stroke-width="2.5" d="M216 604h239V339H216z" transform="matrix(.20370392 0 0 .22203612 157 149)"/><path stroke-width="1.1" d="m620 670-8-4-16 17 5 8zm7 5 5 7-15 18-9-4z" transform="matrix(.20370392 0 0 .22203612 157 149)"/></g><path fill="#b60028" stroke-width="2.5" d="M695 603v159c0 63-54 114-120 114s-120-51-120-114V603z" transform="matrix(.20370392 0 0 .22203612 157 149)"/><g stroke-width="1.1"><path fill="#9f7e00" d="M490 620c-8 0-14 6-14 13 0 6 4 11 10 12v21l-9 2v23l8 2v-7h1v-13h8v-28h1l28 31-5 7 15 17 9-3 21 24-1 2h-14l-2-9h-24l-3 9h-16c-1-4-5-7-9-9v-28h-8v7h-1l1 21c-5 2-9 5-10 10v2c0 6 4 11 9 13v13l-8 3 1 23 9 2 5 18v1c-5 5-5 14 1 18 4 3 9 4 13 3l13 12-2 9c7 4 14 8 21 10l7-6a95 95 0 0 0 17 4c1 6 7 10 13 10 7 0 13-4 14-10l16-4 7-2-4-8 12-6 4 7-12 7-7 2 7 6c7-2 14-6 20-10l-1-9 12-12c5 1 10 0 13-3 6-4 7-13 2-18l-1-1 6-18 9-2 1-23-9-3v-13c6-2 10-7 10-13v-2c-1-5-5-8-10-10v-21l9-2v-23l-9-2v-21c6-1 10-6 10-12 0-7-6-13-14-13-6 0-11 4-13 9h-24v8h-14v-8h-21c-2-5-7-9-13-9s-11 4-13 9h-21v8h-14v-8h-24c-2-5-7-9-13-9z" transform="matrix(.20370392 0 0 .22203612 157 149)"/><path fill="#c8b100" d="m522 620-3 9h29l-2-9zm83 0-3 9h29l-2-9zm-115 7c3 0 6 3 6 6s-3 5-6 5-6-2-6-5 3-6 6-6z" transform="matrix(.20370392 0 0 .22203612 157 149)"/><path fill="#b50027" d="M503 637h16l3 8h24l2-8h14c1 4 4 7 9 8v10l-9 3v22l9 3v31l-2 1-21-24 5-7-15-17-9 3-27-30a12 12 0 0 0 1-3zM588 637h14l3 8h24l2-8h16l1 1-28 32-8-4-16 17 5 8 5-6 9-10 7 5-14 16 8 4 16-18-5-7 27-31 2 1v21l-9 2v23l9 2v21c-5 2-8 5-9 9h-16l-3-9h-24l-2 9h-13l-2-3 21-24 5-6-7-5-25 29h-2v-39h-8v-13h8v21l9-3v-22l-9-3v-10c5-1 8-4 9-8z" transform="matrix(.20370392 0 0 .22203612 157 149)"/><path fill="#c8b100" d="M494 666v27l9-2v-23z" transform="matrix(.20370392 0 0 .22203612 157 149)"/><path fill="#b50027" d="M656 673h8v13h-8zm-122 3 9 10-6 5-10-10z" transform="matrix(.20370392 0 0 .22203612 157 149)"/><path fill="#c8b100" d="M490 721c2 0 4 1 5 3l1 2c0 4-3 6-6 6-4 0-6-2-6-6v-2c1-2 3-3 6-3zm170 0c2 0 4 1 5 3l1 2c0 4-3 6-6 6s-6-2-6-6l1-2c1-2 3-3 5-3z" transform="matrix(.20370392 0 0 .22203612 157 149)"/><path fill="#b50027" d="M526 723h15v8h21l1 2-20 23-8-4-16 17 5 8-17 18-7-1a70 70 0 0 1-6-21h-8a80 80 0 0 1-1-8v-6l9 1v13l1 7 9-3-1-12v-11l-9-2v-13c4-1 7-4 9-8h23zm84 0h14v8h23c1 4 5 7 9 8v13l-9 2-1 11-1 12 9 3-4 14-8 1-16-18 5-8-16-17-8 4-20-23 2-2h21v-8z" transform="matrix(.20370392 0 0 .22203612 157 149)"/><g fill="#dead00"><g fill="#9f7e00"><path d="M664 759v-20c6-2 10-7 10-12 0-6-4-11-10-13v-28h-8v28c-5 1-8 5-9 9h-23v8h23c1 4 5 7 9 8v20h8zm0-114v28h-8v-28l-2-1-32 36-7-5 33-37-1-1h-24v-8h24c2-6 7-9 13-9 8 0 14 6 14 13 0 6-4 11-10 12zm-85 0v17h-8v-17c-4-1-8-4-9-8h-21v-8h21c2-6 7-9 13-9s11 3 13 9h21v8h-21a13 13 0 0 1-9 8zm40 137-9 3-15-17 5-7z" transform="matrix(.20370392 0 0 .22203612 157 149)"/><path d="m548 637-2 8h-24l-3-8zm0-8-2-9h-24l-3 9zM531 782l8 3 16-17-5-7zm-7-5-5-8 16-17 8 4z" transform="matrix(.20370392 0 0 .22203612 157 149)"/><path d="m530 829-4 7c-8-4-14-10-20-16-4 1-9 0-13-3-6-4-6-13-1-18v-1c-3-8-5-16-6-25h8a70 70 0 0 0 6 21 15 15 0 0 1 7 1l22-24 7 5-22 24c3 5 3 11-1 15l17 14z" transform="matrix(.20370392 0 0 .22203612 157 149)"/><path d="M524 824c7 6 16 11 25 14l2-9c-8-2-15-6-21-10zm-5 8c8 5 16 10 26 13l-7 6a99 99 0 0 1-21-10zM485 759v-20c-5-2-9-7-9-12 0-6 4-11 10-13l-1-28h9v28c4 1 8 5 9 9h23v8h-23c-2 4-5 7-9 8v20h-9" transform="matrix(.20370392 0 0 .22203612 157 149)"/><path d="m487 780-9-2-1-23 8-3v13l2 15zm7-28 9 2v11l1 12-9 3-1-15v-13zm-8-86-9 2v23l9 2zm8 0 9 2v23l-9 2zm25 57 3-9h24l2 9z" transform="matrix(.20370392 0 0 .22203612 157 149)"/></g><path d="m519 731 3 8h24l2-8z" transform="matrix(.20370392 0 0 .22203612 157 149)"/><g fill="#9f7e00"><path d="M588 841c7-1 13-3 20-6l4 8c-7 3-15 5-23 6-1 6-7 10-14 10-6 0-12-4-13-10-9-1-17-3-24-6l4-8 21 6c1-3 4-6 8-7v-36h9v36c3 1 7 3 8 7z" transform="matrix(.20370392 0 0 .22203612 157 149)"/><path d="M626 824c-7 6-16 11-25 14l-2-9c7-2 15-6 21-10zm5 8c-8 5-17 10-26 13l7 6a99 99 0 0 0 21-10zm-51-27 9-2v-23l-9-2zm-9 0-9-2v-23l9-2zM602 637l3 8h24l2-8zm0-8 3-9h24l2 9z" transform="matrix(.20370392 0 0 .22203612 157 149)"/></g></g><path fill="#9f7e00" d="m519 731 3 8h24l2-8z" transform="matrix(.20370392 0 0 .22203612 157 149)"/><path fill="#dead00" d="m602 731 2 8h24l3-8z" transform="matrix(.20370392 0 0 .22203612 157 149)"/><g fill="#b50027"><path d="M570 739a5 5 0 0 0 1 0v39l-9 2v23l9 2v29c-4 1-7 4-8 7l-14-3 2-9c-8-2-15-6-21-10l-7 5a84 84 0 0 0 6 4 77 77 0 0 1-15-13c3-4 3-10 0-14l17-19 8 4 16-18-5-7zm11 0 24 27 7-5 9 10-7 6-9-11-5-5-5 7 15 18 9-4 17 19c-3 4-3 10 0 14l-10 9a78 78 0 0 1-6 4 85 85 0 0 0 6-4l-6-5c-6 4-14 8-21 10l2 9-13 3c-1-4-5-6-8-7v-29l9-2v-23l-9-2v-39h1zm83 20v14h-9l1-8v-5l8-1z" transform="matrix(.20370392 0 0 .22203612 157 149)"/><path d="m538 761 7 5-9 11-7-6zm33 24h9v13h-9zm-41 44 12 6-4 8a93 93 0 0 1-12-7z" transform="matrix(.20370392 0 0 .22203612 157 149)"/></g><path fill="#9f7e00" d="m563 733-1-2h-21v-8h21l1-2-26-30 6-5 26 29 2-1v-39h8v39h2l25-29 7 5-26 29 2 4h21v8h-21l-2 2 25 28-7 5-24-27h-1v46h-9v-46l-1-1-25 28-7-5 25-28" transform="matrix(.20370392 0 0 .22203612 157 149)"/><path fill="#b50027" d="M497 804c2-3 6-3 9-1 2 2 2 6 0 8s-6 3-8 1c-3-3-3-6-1-8zm-13-77c0-4 2-6 6-6s6 2 6 6c0 3-3 5-6 5s-6-2-6-5z" transform="matrix(.20370392 0 0 .22203612 157 149)"/><path fill="#9f7e00" d="m620 829 4 7c7-4 14-10 19-16 5 1 10 0 14-3 5-4 6-13 1-18l-1-1c4-8 6-16 7-25h-9c0 7-2 15-5 21l-8 1-21-24-7 5 22 24c-3 5-3 11 0 15l-16 14z" transform="matrix(.20370392 0 0 .22203612 157 149)"/><path fill="#b50027" d="M652 804c-2-3-6-3-8-1-3 2-3 6-1 8s6 3 8 1c3-2 3-6 1-8z" transform="matrix(.20370392 0 0 .22203612 157 149)"/><path fill="#9f7e00" d="m663 780 9-2 1-23-9-3v13l-1 15zm-7-28-9 2-1 11-1 12 9 3 2-15v-13m0-86-9 2v23l9 2zm8 0 9 2v23l-9 2zm-38 111 5-8-16-17-8 4z" transform="matrix(.20370392 0 0 .22203612 157 149)"/><path fill="none" d="M484 633c0-3 3-6 6-6s6 3 6 6-3 5-6 5-6-2-6-5z" transform="matrix(.20370392 0 0 .22203612 157 149)"/><path fill="#b50027" d="M654 727c0-4 3-6 6-6s6 2 6 6c0 3-3 5-6 5s-6-2-6-5z" transform="matrix(.20370392 0 0 .22203612 157 149)"/><path fill="#9f7e00" d="m631 723-3-9h-24l-2 9zm0 8-3 8h-24l-2-8z" transform="matrix(.20370392 0 0 .22203612 157 149)"/><path fill="#b50027" d="M570 846c0-3 2-5 5-5 4 0 6 2 6 5s-2 6-6 6c-3 0-5-3-5-6zm84-213c0-3 3-6 6-6s6 3 6 6-3 5-6 5-6-2-6-5zm-85 0c0-3 3-6 6-6s6 3 6 6-3 5-6 5-6-2-6-5z" transform="matrix(.20370392 0 0 .22203612 157 149)"/><g fill="#9f7e00"><path d="m495 645 32 36 7-5-32-36 1-3h24v-8h-24c-1-6-7-9-13-9-8 0-14 6-14 13 0 6 4 10 10 12l-1 28h9v-28h1z" transform="matrix(.20370392 0 0 .22203612 157 149)"/><path d="m529 670 9-3 15 17-5 7zm-6 6-5 7 15 17 9-3z" transform="matrix(.20370392 0 0 .22203612 157 149)"/></g><path fill="#9f7e00" d="m571 655-9 3v22l9 3zm8 0 9 3v22l-9 3z" transform="matrix(.20370392 0 0 .22203612 157 149)"/><path fill="#006f46" d="M561 727c0-7 7-13 14-13 8 0 14 6 14 13s-6 13-14 13c-7 0-14-6-14-13" transform="matrix(.20370392 0 0 .22203612 157 149)"/></g><path fill="#c8b100" d="M470 603h21v-5h-21z" transform="matrix(.20370392 0 0 .22203612 157 149)"/><path fill="#dead00" d="M470 603h21v-5h-21z" transform="matrix(.20370392 0 0 .22203612 157 149)"/><g stroke-width="2.5"><path fill="#f6cb7e" d="M467 833c10 3 15 11 15 20 0 11-10 19-25 19-14 0-26-8-26-19 0-9 5-19 15-19l-1-3-3-3h6l4 3 2-4 3-3s3 2 3 4l1 2 4-2 4-1-1 3a31 31 0 0 0-1 2v1z" transform="matrix(.20370392 0 0 .22203612 157 149)"/><path fill="#006f46" d="M455 885s-19-13-27-15c-10-2-22 0-27 0l8 7 17 9c15 3 29-1 29-1m6 1s12-13 24-15c15-2 25 2 31 3l-7 4c-3 2-10 8-20 8l-24-1a331 331 0 0 0-4 1" transform="matrix(.20370392 0 0 .22203612 157 149)"/><path fill="#b50027" d="M455 868c-5-5-6-9-6-15 0-7 3-14 8-18a24 24 0 0 1 8 18c0 6-1 10-5 14l-3 2z" transform="matrix(.20370392 0 0 .22203612 157 149)"/><path fill="#006f46" d="M452 895s3-6 3-12v-11h3l2 11-1 11-3 1-3 1-2 1z" transform="matrix(.20370392 0 0 .22203612 157 149)"/></g></g><path fill="#b2b2b2" d="M250 283h49v-59h-49z"/><path fill="none" stroke="#000" stroke-width="2.5" d="M455 604h239V339H455z" transform="matrix(.20370392 0 0 .22203612 157 149)"/><g stroke="#000"><path fill="#b50027" d="M604 569s-3 3-1 6l2 5s0-4 2-5c1-2 5-2 5-2l-4-2-4-2zm15 4s-1 4 2 7c2 2 5 2 5 2s-2-4-2-6l3-3-4-1-4 1zm-41-165v-5h-11l-12-6-8-6c-6-1-11 2-11 2s5 2 8 6c4 5 8 7 10 8h15l9 1z" transform="matrix(.20370392 0 0 .22203612 157 149)"/><path fill="#fff" d="m564 412 2-2 1 2h-3m4 0 2-2 2 2h-4m-2-16 4 2-3 2-1-4m5 2 3 1-2 2z" transform="matrix(.20370392 0 0 .22203612 157 149)"/><path fill="#d85aac" stroke-linejoin="round" stroke-width="1.2" d="m613 397 1 7-1 8 2 4 1 4-4-2a56 56 0 0 0-3-2s1 3 1 5l2 6 5 6 1 7s-2-4-4-4l-6-3s4 3 4 7l-2 8-4-6-5-4 2 9-1 12-3-5-5-3 2 5c1 3 2 11 10 23 4 6 11 17 26 14 14-4 9-24 6-33s-5-20-5-23l3-16v-16l5-12 2-6 1-6 3 6 1 8s0-6 4-8l10-7 2-3s0 9-3 13l-8 10 6-1h4l-7 7c-4 6-2 6-5 11s-5 5-9 7c-5 5-2 21-1 24l10 27c0 5 1 16-8 23-6 4-15 5-17 6s-6 5-6 14c0 8 3 9 6 12 2 2 5 1 6 2l2 4c1 1 2 2 1 4l-5 8-5 12 1 7s5 5 2 6l-5-1c-3 0-4 2-5 2l-2-4v-3l-2 2-1 4-4-2c-1-1-4-1-5-3 0-1 2-4 4-4 2-1 4-2 2-3h-3c-1 1-4 1-4-1l1-4c-1-1-3-2 0-4 3-1 4 1 7 1l5-3c1-2 1-5-1-7l-5-4-1-5v11l-4-3-3-7v6l1 4-4-4c-1 0-4-2-5-5l-3-6v-8l2-5h-6c-4 0-7-1-8 1s-1 7 1 14c2 6 3 9 2 10l-3 5-5-1-6-1h-6l-6-2c-1 1-3 2-3 4 1 3-1 3-2 3l-5-1c-1 0-4 0-3-2l1-3 1-3-4 1c-1 0-2 2-3 1-2 0-3-2-3-5s-3-5 0-5 7 2 8 0c0-1 0-2-2-3-1-2-3-2-1-4l3-3c1 0 2-3 4-3 3 2 0 4 3 7s5 5 10 4c5 0 6-1 6-2l-1-5 1-5-3 3-2 3v-9l-1-4-1 4-1 5s-3-3-2-7v-10c1-2 4-8 10-8h13l10-1-17-10-10-10-3-8s-3 0-5 2a24 24 0 0 0-9 9v-10s-2 7-5 9l-7 5v-4l1-5s-2 4-6 4c-3 1-8 1-9 3v7l-2 2-4-2-3 1s-2-2-1-3c0-1 3-3 2-4l-4 1c-1 1-4 1-4-1l1-5v-3l6-1c1-1-1-2-4-3-3 0-4-2-2-3l2-3c0-1 1-4 4-3l4 5c3 1 9 0 11-1l7-5 8-5-5-4-5-5-10-3-8-2 4-2c1-1 3-3 4-2h1l-6-1-7-2h-4l7-3h5s-4-1-5-3l-3-5-3-3-6 2c-1 0-2-1-2-3l-1-3c0-1-3-3-1-4h7c1-1-2-4-4-4-2-1-4-3-3-4l4-3c1-1 2-4 3-3 2 1 4 6 6 5l1-5 1-4 5 2c2 0 5-1 5 1s-1 3-3 5c-1 2-2 5-1 7s3 6 5 7l9 4c3 2 9 7 11 7l4 2 5-1 13-1c3-1 6-3 5-5-1-3-7-5-6-7 0-2 2-2 6-2s9 1 9-5c1-5 2-8-3-9-6-1-9-1-10-5-1-3-2-4-1-5s3-2 7-2l9-1c1-1 1-4 3-5l7-1s7 3 13 8c6 4 11 10 11 10" transform="matrix(.20370392 0 0 .22203612 157 149)"/><path d="m564 394-1-3v-2s4 0 3 2l-1 1-1 2" transform="matrix(.20370392 0 0 .22203612 157 149)"/><path stroke-width=".8" d="M583 387v-2l5 1c3 2 4 5 4 5l-4-2-2 1-2-1 1-2h-2z" transform="matrix(.20370392 0 0 .22203612 157 149)"/><path fill="none" stroke-linecap="round" d="m609 416-2-3-1-3" transform="matrix(.20370392 0 0 .22203612 157 149)"/><path fill="#db4446" d="m511 393 4 2h4v-4c-1-6-6-7-6-7s2 3 1 5l-3 4" transform="matrix(.20370392 0 0 .22203612 157 149)"/><path fill="#b50027" d="m511 393 4 2h4v-4c-1-6-6-7-6-7s2 3 1 5l-3 4z" transform="matrix(.20370392 0 0 .22203612 157 149)"/><path fill="#db4446" d="M500 398s-2-4-6-3c-5 0-8 3-8 3l6 1 3 4 3-2 2-3" transform="matrix(.20370392 0 0 .22203612 157 149)"/><path fill="#b50027" d="M500 398s-2-4-6-3c-5 0-8 3-8 3l6 1 3 4 3-2 2-3z" transform="matrix(.20370392 0 0 .22203612 157 149)"/><path fill="#db4446" d="M495 413s-4 0-6 3c-2 2-2 6-2 6s3-2 5-2h5l-1-3-1-4" transform="matrix(.20370392 0 0 .22203612 157 149)"/><path fill="#b50027" d="M495 413s-4 0-6 3c-2 2-2 6-2 6s3-2 5-2h5l-1-3-1-4z" transform="matrix(.20370392 0 0 .22203612 157 149)"/><path fill="none" stroke-linejoin="round" d="M545 428s-4 1-6 3l-1 5s3-3 7-2l6 2 7-2s-4 4-4 7l1 5c0 4-3 8-3 8l5-2c4 0 7-2 9-3l4-5v7l1 7 4-2c1-1 4-2 4-4l2-5s0 4 2 7l3 8 3-6 3-5v-4l2 4m-54 3 4-5 6-4 4-2m5 24 7-3c3-2 5-6 5-6" transform="matrix(.20370392 0 0 .22203612 157 149)"/><path fill="#db4446" d="M507 461s-2-2-6-2c-3 1-5 5-5 5h4c2 0 3 2 3 2l2-2 2-3" transform="matrix(.20370392 0 0 .22203612 157 149)"/><path fill="#b50027" d="M507 461s-2-2-6-2c-3 1-5 5-5 5h4c2 0 3 2 3 2l2-2 2-3z" transform="matrix(.20370392 0 0 .22203612 157 149)"/><path fill="#db4446" d="M503 475s-3-1-6 2c-2 2-2 6-2 6l4-2 4 1 1-3-1-4" transform="matrix(.20370392 0 0 .22203612 157 149)"/><path fill="#b50027" d="M503 475s-3-1-6 2c-2 2-2 6-2 6l4-2 4 1 1-3-1-4z" transform="matrix(.20370392 0 0 .22203612 157 149)"/><path fill="#db4446" d="M510 488s-1 4 1 6c2 3 6 3 6 3l-2-4c0-2 2-3 2-3l-4-2h-3" transform="matrix(.20370392 0 0 .22203612 157 149)"/><path fill="#b50027" d="M510 488s-1 4 1 6c2 3 6 3 6 3l-2-4c0-2 2-3 2-3l-4-2h-3z" transform="matrix(.20370392 0 0 .22203612 157 149)"/><path fill="none" d="M589 494s10 6 9 11c0 5-5 12-5 12" transform="matrix(.20370392 0 0 .22203612 157 149)"/><path fill="#db4446" d="M545 522s-3-4-6-3c-4 0-7 3-7 3s4 0 5 1l2 3 3-2 3-2" transform="matrix(.20370392 0 0 .22203612 157 149)"/><path fill="#b50027" d="M545 522s-3-4-6-3c-4 0-7 3-7 3s4 0 5 1l2 3 3-2 3-2z" transform="matrix(.20370392 0 0 .22203612 157 149)"/><path fill="#db4446" d="M534 535s-4-1-6 2c-2 2-2 6-2 6s2-3 5-3l5 2-1-4-1-3" transform="matrix(.20370392 0 0 .22203612 157 149)"/><path fill="#b50027" d="M534 535s-4-1-6 2c-2 2-2 6-2 6s2-3 5-3l5 2-1-4-1-3z" transform="matrix(.20370392 0 0 .22203612 157 149)"/><path fill="#db4446" d="M544 549s-2 3-1 5c2 3 5 4 5 4v-4l3-4-7-1" transform="matrix(.20370392 0 0 .22203612 157 149)"/><g fill="#b50027"><path d="M544 549s-2 3-1 5c2 3 5 4 5 4v-4l3-4-7-1zm59 6s-4-1-6 0-4 7-4 7 3-3 6-3l4 2 1-4-1-2" transform="matrix(.20370392 0 0 .22203612 157 149)"/><path d="M603 555s-4-1-6 0-4 7-4 7 3-3 6-3l4 2 1-4-1-2z" transform="matrix(.20370392 0 0 .22203612 157 149)"/></g><g fill="#9f7e00" stroke-width=".8" transform="matrix(.20370392 0 0 .22203612 156 149)"><path d="M615 378h-1l-2 1c-1 2-3 2-4 1a2 2 0 0 1 0-2h-3v-6h-2v1l-4 1v-2l-1 1c-3 1-4-5-4-7v8l-1 6c3 0 8 3 14 7l11 12 5-3h7l1-1c-2 0-8 0-7-3v-1h-2l1-3v-2h-1l-1 1h-4v-2l-3-1v-3l1-2v-1"/><path d="m609 385-2-2h1l1 1 2 1v1h-1l-1-1m-8-6-2-1 1-1 1 1 1 1 1 1h-1l-1-1"/><ellipse cx="723.2" cy="-29.4" fill-rule="evenodd" rx="1" ry=".7" transform="matrix(.82291 .56817 -.612 .79086 0 0)"/><path d="m617 391 1 1c0 1 0 1 0 0 1 0 1 0 0 0l-1-1-1-1h-1 1l1 1"/><ellipse cx="671" cy="-266.3" fill-rule="evenodd" rx="1" ry=".7" transform="matrix(.59251 .80556 -.83654 .54791 0 0)"/><path d="m608 366-3 1v4h1l3-2-1-3zM600 369v2l5 1v-1l-2-4-3 2z"/><path d="m609 374-2 1-3-3v-1h5v3z"/><circle cx="604.8" cy="371.1" r="1.5" fill-rule="evenodd"/><path d="m593 366-1-3-2-2h5c1 2-1 5-1 5h-1"/><path d="m598 368-2 2-3-3v-1h1l4-1v3z"/><path d="m593 366 1-1 1 1-1 2-1-2m26 7h-3l-1 4v1h1l4-2-1-3zM611 374l-1 3 5 1v-1l-2-4-2 1z"/><path d="m619 381-2 1-2-4v-1l5 1-1 3z"/><circle cx="614.9" cy="377.6" r="1.5" fill-rule="evenodd"/><path d="m628 382 1 3-5 1v-1l1-4 3 1z"/><path d="m627 389-2 1-2-4v-1h1l4 2-1 2z"/><path d="m620 382-1 3 4 1h1v-1l-1-3h-3z"/><circle cx="623.7" cy="385.6" r="1.5" fill-rule="evenodd"/><path d="m631 395 4 1 2 1c1 0 1-2-1-4-2-1-4 1-4 1l-1 1"/><path d="m629 391-2 2 4 3v-1h1l-1-4h-2z"/><path d="m631 396 1-1-1-1-1 1 1 1"/></g></g><path fill="#fff" d="M277 235z"/><g fill="#9f7e00" fill-rule="evenodd" stroke="#000" stroke-width=".8" transform="matrix(.17277555 .11761697 -.11712568 .1816633 156 149)"><ellipse cx="705.1" cy="3.2" rx="1" ry=".7"/><ellipse cx="715.3" cy="3" rx="1" ry=".7"/></g><path fill="#ce1126" d="M234 283c0-11 7-20 16-20s16 9 16 20-7 19-16 19-16-9-16-19"/><path fill="#b50027" stroke="#000" stroke-width="2.9" d="M378 603c0-49 35-88 78-88 42 0 77 39 77 88s-35 87-77 87c-43 0-78-39-78-87z" transform="matrix(.20370392 0 0 .22203612 157 149)"/><path fill="#005bbf" fill-opacity=".9" d="M239 283c0-8 5-15 11-15s11 7 11 15c0 7-5 14-11 14s-11-7-11-14"/><g stroke="#000"><path fill="#0044ad" stroke-width="2.9" d="M401 602c0-35 25-63 55-63s54 28 54 63c0 36-24 64-54 64s-55-28-55-64z" transform="matrix(.20370392 0 0 .22203612 157 149)"/><g fill="#9f7e00"><path d="M430 558s-6 7-6 14 2 12 2 12c-1-2-3-4-6-4-4 0-8 3-8 6l2 4 2 5c1-2 2-3 5-3 2 0 5 2 5 5v1h-6v5h5l-4 8 5-2 4 4 4-4 5 2-4-8h5v-5h-5l-1-1c0-3 3-5 6-5 2 0 3 1 4 3l3-5 1-4c0-3-3-6-7-6s-6 2-7 4c0 0 3-5 3-12s-7-14-7-14" transform="matrix(.20370392 0 0 .22203612 157 149)"/><path d="M420 603h20v-5h-20zm61-45s-7 7-7 14 3 12 3 12c-1-2-4-4-7-4-4 0-7 3-7 6l1 4 2 5c1-2 3-3 5-3 3 0 5 2 5 5v1h-6v5h5l-3 8 5-2 4 4 4-4 5 2-4-8h5v-5h-6v-1c0-3 2-5 5-5 2 0 4 1 5 3l2-5 1-4c0-3-3-6-7-6-3 0-6 2-7 4 0 0 3-5 3-12s-6-14-6-14m-26 44s-6 7-6 14 3 12 3 12c-1-3-4-5-7-5-4 0-7 3-7 7l1 4 2 4 5-2c3 0 5 2 5 4v2h-6v5h5l-4 7 5-2 4 4 4-4 5 2-3-7h5v-5h-6a4 4 0 0 1 0-2c0-2 2-4 5-4l5 2 2-4 1-4c0-4-3-7-7-7-3 0-6 2-7 5 0 0 3-6 3-12s-7-14-7-14" transform="matrix(.20370392 0 0 .22203612 157 149)"/><path d="M445 647h21v-5h-21zm25-44h21v-5h-21z" transform="matrix(.20370392 0 0 .22203612 157 149)"/></g></g><g stroke="#000"><path fill="none" stroke-width="4" d="M456 904c-61 0-121-15-171-41-38-19-62-57-62-101V339h465v423c0 44-25 82-62 101-50 26-109 41-170 41z" transform="matrix(.2091873 0 0 .22203612 155 149)"/><path fill="#9f7e00" fill-rule="evenodd" stroke-width="1.3" d="M747 807h107v28H747z" transform="matrix(.2091873 0 0 .22203612 155 149)"/><path fill="#9f7e00" stroke-width="1.3" d="M56 807h107v28H56z" transform="matrix(.2091873 0 0 .22203612 155 149)"/></g></svg>