<svg width="97" height="49" viewBox="0 0 97 49" fill="none" xmlns="http://www.w3.org/2000/svg">
<path fill-rule="evenodd" clip-rule="evenodd" d="M64 48.5L72 11H87C91 11 98.1 14.3 96.5 23.5C94.9 32.7 89 37 86 37.5C82.5 38.5 79.3933 38 73.5 38L71.5 48.5H64ZM77.5 16.5L74.5 32.5H82.5C87.5 32.5 88.5 26 89 21C89.4 17 87 16.5 83 16.5H77.5Z" fill="white"/>
<path d="M74.5 32.5L77.5 16.5H83C87 16.5 89.4 17 89 21C88.5 26 87.5 32.5 82.5 32.5M74.5 32.5C75.5 32.5 78.5 32.5 82.5 32.5M74.5 32.5H82.5M64 48.5L72 11H87C91 11 98.1 14.3 96.5 23.5C94.9 32.7 89 37 86 37.5C82.5 38.5 79.3933 38 73.5 38L71.5 48.5H64Z" stroke="black" stroke-width="0.5"/>
<path fill-rule="evenodd" clip-rule="evenodd" d="M1 48.5L9 11H24C28 11 35.1 14.3 33.5 23.5C31.9 32.7 26 37 23 37.5C19.5 38.5 16.3933 38 10.5 38L8.5 48.5H1ZM14.5 16.5L11.5 32.5H19.5C24.5 32.5 25.5 26 26 21C26.4 17 24 16.5 20 16.5H14.5Z" fill="white"/>
<path d="M11.5 32.5L14.5 16.5H20C24 16.5 26.4 17 26 21C25.5 26 24.5 32.5 19.5 32.5M11.5 32.5C12.5 32.5 15.5 32.5 19.5 32.5M11.5 32.5H19.5M1 48.5L9 11H24C28 11 35.1 14.3 33.5 23.5C31.9 32.7 26 37 23 37.5C19.5 38.5 16.3933 38 10.5 38L8.5 48.5H1Z" stroke="black" stroke-width="0.5"/>
<path d="M35 38L43 0.5H49.5L47.5 10.5H56C64.8 10.5 64 18 63.5 22L60.5 38H53.5L56.5 22C57.5 17 54.8333 16 53 16H46.5L42 38H35Z" fill="white" stroke="black" stroke-width="0.5"/>
</svg>
