<svg width="1330" height="1324" viewBox="0 0 1330 1324" fill="none" xmlns="http://www.w3.org/2000/svg">
<path d="M660.508 40C343.164 40 362.969 177.617 362.969 177.617L363.359 320.195H666.172V362.969H243.008C243.008 362.969 40 339.922 40 660.156C40 980.312 217.227 968.984 217.227 968.984H323.008V820.391C323.008 820.391 317.305 643.164 497.422 643.164H797.734C797.734 643.164 966.484 645.898 966.484 480.078V205.898C966.484 205.898 992.109 40 660.508 40ZM493.516 135.859C507.968 135.859 521.828 141.601 532.047 151.82C542.267 162.039 548.008 175.899 548.008 190.352C548.008 204.804 542.267 218.664 532.047 228.883C521.828 239.103 507.968 244.844 493.516 244.844C486.357 244.854 479.266 243.452 472.65 240.717C466.034 237.982 460.023 233.968 454.961 228.906C449.899 223.844 445.885 217.833 443.15 211.217C440.416 204.601 439.013 197.511 439.023 190.352C439.023 160.234 463.398 135.859 493.516 135.859Z" fill="url(#paint0_linear_302_3498)"/>
<path d="M669.492 1283.48C986.836 1283.48 967.031 1145.86 967.031 1145.86L966.641 1003.28H663.828V960.508H1086.95C1086.95 960.508 1290 983.555 1290 663.359C1290 343.164 1112.77 354.531 1112.77 354.531H1006.99V503.086C1006.99 503.086 1012.7 680.312 832.578 680.312H532.266C532.266 680.312 363.516 677.578 363.516 843.398V1117.58C363.516 1117.58 337.891 1283.48 669.492 1283.48ZM836.485 1187.62C829.326 1187.63 822.235 1186.23 815.619 1183.49C809.003 1180.76 802.992 1176.74 797.93 1171.68C792.868 1166.62 788.854 1160.61 786.119 1153.99C783.385 1147.37 781.982 1140.28 781.992 1133.12C782 1122.36 785.199 1111.84 791.186 1102.89C797.172 1093.94 805.677 1086.97 815.625 1082.85C825.574 1078.73 836.519 1077.66 847.078 1079.76C857.638 1081.86 867.337 1087.05 874.95 1094.66C882.563 1102.27 887.748 1111.97 889.85 1122.53C891.953 1133.09 890.878 1144.04 886.761 1153.98C882.644 1163.93 875.671 1172.44 866.722 1178.42C857.774 1184.41 847.251 1187.61 836.485 1187.62Z" fill="url(#paint1_linear_302_3498)"/>
<defs>
<linearGradient id="paint0_linear_302_3498" x1="160.117" y1="148.672" x2="778.203" y2="768.828" gradientUnits="userSpaceOnUse">
<stop stop-color="#387EB8"/>
<stop offset="1" stop-color="#366994"/>
</linearGradient>
<linearGradient id="paint1_linear_302_3498" x1="540.352" y1="543.203" x2="1204.18" y2="1179.18" gradientUnits="userSpaceOnUse">
<stop stop-color="#FFE052"/>
<stop offset="1" stop-color="#FFC331"/>
</linearGradient>
</defs>
</svg>
