<svg width="1580" height="1058" viewBox="0 0 1580 1058" fill="none" xmlns="http://www.w3.org/2000/svg">
<path d="M1 987.934L200.189 835.791H1379.3L1578.49 987.934H1Z" fill="url(#paint0_linear_1186_643)" stroke="black" stroke-width="2.00189" stroke-linejoin="round"/>
<path d="M189.18 920.871L263.25 850.805H1316.25L1390.32 920.871H189.18Z" fill="#C4C4C4" stroke="black" stroke-width="2.00189" stroke-linejoin="round"/>
<path d="M589.555 974.922L640.603 934.884H941.888L989.933 974.922H589.555Z" fill="#C4C4C4" stroke="black" stroke-width="2.00189" stroke-linejoin="round"/>
<path d="M1578.49 1027.97H1L51.0791 1057H1528.41L1578.49 1027.97Z" fill="#EBEBEB" stroke="black" stroke-width="2.00189" stroke-linejoin="round"/>
<path d="M1578.49 987.935L1 987.931V1027.97H1578.49V987.935Z" fill="#DEDEDE" stroke="black" stroke-width="2.00189" stroke-linejoin="round"/>
<mask id="path-6-inside-1_1186_643" fill="white">
<path fill-rule="evenodd" clip-rule="evenodd" d="M215.203 0C206.358 0 199.188 7.17023 199.188 16.0152V836.792H1380.31V16.0152C1380.31 7.17023 1373.13 0 1364.29 0H215.203ZM1360.29 34.0322H219.206V784.742H1360.29V34.0322Z"/>
</mask>
<path fill-rule="evenodd" clip-rule="evenodd" d="M215.203 0C206.358 0 199.188 7.17023 199.188 16.0152V836.792H1380.31V16.0152C1380.31 7.17023 1373.13 0 1364.29 0H215.203ZM1360.29 34.0322H219.206V784.742H1360.29V34.0322Z" fill="url(#paint1_linear_1186_643)"/>
<path d="M199.188 836.792H197.186V838.794H199.188V836.792ZM1380.31 836.792V838.794H1382.31V836.792H1380.31ZM219.206 34.0322V32.0303H217.204V34.0322H219.206ZM1360.29 34.0322H1362.29V32.0303H1360.29V34.0322ZM219.206 784.742H217.204V786.744H219.206V784.742ZM1360.29 784.742V786.744H1362.29V784.742H1360.29ZM201.189 16.0152C201.189 8.27584 207.463 2.00189 215.203 2.00189V-2.00189C205.252 -2.00189 197.186 6.06461 197.186 16.0152H201.189ZM201.189 836.792V16.0152H197.186V836.792H201.189ZM1380.31 834.79H199.188V838.794H1380.31V834.79ZM1378.3 16.0152V836.792H1382.31V16.0152H1378.3ZM1364.29 2.00189C1372.03 2.00189 1378.3 8.27585 1378.3 16.0152H1382.31C1382.31 6.06461 1374.24 -2.00189 1364.29 -2.00189V2.00189ZM215.203 2.00189H1364.29V-2.00189H215.203V2.00189ZM219.206 36.0341H1360.29V32.0303H219.206V36.0341ZM221.208 784.742V34.0322H217.204V784.742H221.208ZM1360.29 782.741H219.206V786.744H1360.29V782.741ZM1358.28 34.0322V784.742H1362.29V34.0322H1358.28Z" fill="black" mask="url(#path-6-inside-1_1186_643)"/>
<g opacity="0.75">
<path d="M744 799.077V812.051M744 825.025V812.051M744 812.051L762.37 812.012V799V825.025" stroke="#1E1F24" stroke-width="4" stroke-linecap="round" stroke-linejoin="round"/>
<path d="M817.738 824.929L830.215 799.058L842.691 824.929" stroke="#1E1F24" stroke-width="4" stroke-linecap="round" stroke-linejoin="round"/>
<path d="M812.012 799H794.662V817.904C794.662 827.189 811.981 827.606 811.981 817.904" stroke="#1E1F24" stroke-width="4" stroke-linecap="round" stroke-linejoin="round"/>
<path d="M769.504 799H786.854V817.904C786.854 827.189 769.534 827.606 769.534 817.904" stroke="#1E1F24" stroke-width="4" stroke-linecap="round" stroke-linejoin="round"/>
<path d="M786.855 811.203H794.663" stroke="#1E1F24" stroke-width="4" stroke-linecap="round" stroke-linejoin="round"/>
<path d="M781.853 803.742L774.363 818.634" stroke="#E3A008" stroke-width="1.5" stroke-linecap="round" stroke-linejoin="round"/>
<path d="M782.286 807.675L777.312 817.709" stroke="#E3A008" stroke-width="1.5" stroke-linecap="round" stroke-linejoin="round"/>
<path d="M807.181 803.742L799.691 818.634" stroke="#E3A008" stroke-width="1.5" stroke-linecap="round" stroke-linejoin="round"/>
<path d="M807.56 807.675L802.586 817.709" stroke="#E3A008" stroke-width="1.5" stroke-linecap="round" stroke-linejoin="round"/>
</g>
<defs>
<linearGradient id="paint0_linear_1186_643" x1="1" y1="911.863" x2="1578.49" y2="911.863" gradientUnits="userSpaceOnUse">
<stop stop-color="#C4C4C4"/>
<stop offset="0.2" stop-color="#DEDEDE"/>
<stop offset="0.8" stop-color="#DEDEDE"/>
<stop offset="1" stop-color="#C4C4C4"/>
</linearGradient>
<linearGradient id="paint1_linear_1186_643" x1="1380.31" y1="418.396" x2="199.188" y2="418.396" gradientUnits="userSpaceOnUse">
<stop stop-color="#C4C4C4"/>
<stop offset="0.2" stop-color="#DEDEDE"/>
<stop offset="0.8" stop-color="#DEDEDE"/>
<stop offset="1" stop-color="#C4C4C4"/>
</linearGradient>
</defs>
</svg>
